<?xml version="1.0" encoding="UTF-8" standalone="no"?>
<!-- Created with Inkscape (http://www.inkscape.org/) -->

<svg
   xmlns:dc="http://purl.org/dc/elements/1.1/"
   xmlns:cc="http://creativecommons.org/ns#"
   xmlns:rdf="http://www.w3.org/1999/02/22-rdf-syntax-ns#"
   xmlns:svg="http://www.w3.org/2000/svg"
   xmlns="http://www.w3.org/2000/svg"
   xmlns:sodipodi="http://sodipodi.sourceforge.net/DTD/sodipodi-0.dtd"
   xmlns:inkscape="http://www.inkscape.org/namespaces/inkscape"
   width="255"
   height="255"
   id="svg2"
   version="1.1"
   inkscape:version="0.48.4 r9939"
   sodipodi:docname="New document 1">
  <defs
     id="defs4" />
  <sodipodi:namedview
     id="base"
     pagecolor="#ffffff"
     bordercolor="#666666"
     borderopacity="1.0"
     inkscape:pageopacity="0.0"
     inkscape:pageshadow="2"
     inkscape:zoom="2.8"
     inkscape:cx="122.23416"
     inkscape:cy="119.10714"
     inkscape:document-units="px"
     inkscape:current-layer="layer1"
     showgrid="false"
     inkscape:window-width="1855"
     inkscape:window-height="1056"
     inkscape:window-x="65"
     inkscape:window-y="24"
     inkscape:window-maximized="1" />
  <metadata
     id="metadata7">
    <rdf:RDF>
      <cc:Work
         rdf:about="">
        <dc:format>image/svg+xml</dc:format>
        <dc:type
           rdf:resource="http://purl.org/dc/dcmitype/StillImage" />
        <dc:title></dc:title>
      </cc:Work>
    </rdf:RDF>
  </metadata>
  <g
     inkscape:label="Layer 1"
     inkscape:groupmode="layer"
     id="layer1">
    <g
       style="font-size:56.10084152px;font-style:normal;font-variant:normal;font-weight:normal;font-stretch:normal;line-height:125%;letter-spacing:0px;word-spacing:0px;fill:#000000;fill-opacity:1;stroke:none;font-family:Fipps;-inkscape-font-specification:Fipps"
       id="text2985"
       transform="translate(-2,0)">
      <path
         id="path3000"
         d="m 207.13865,75.491593 0,21.037815 -7.0126,0 0,-49.088236 28.05042,0 0,7.012605 -21.03782,0 0,14.025211 21.03782,0 0,7.012605 -21.03782,0 m 21.03782,-7.012605 0,-14.025211 7.0126,0 0,14.025211 -7.0126,0 m 21.03781,-14.025211 -7.0126,0 0,-7.012605 -7.01261,0 0,-7.012605 -35.06302,0 0,7.012605 -7.01261,0 0,56.100838 7.01261,0 0,7.01261 21.03781,0 0,-21.037817 14.02521,0 0,-7.012605 7.01261,0 0,-7.012605 7.0126,0 0,-21.037816 m -112.20167,7.012606 0,35.063025 -7.01261,0 0,-49.088236 7.01261,0 0,7.012605 7.0126,0 0,7.012606 -7.0126,0 m 14.02521,14.02521 0,-7.012605 7.0126,0 0,7.012605 -7.0126,0 m -7.01261,-7.012605 0,-7.012605 7.01261,0 0,7.012605 -7.01261,0 m 14.02521,0 0,-7.012605 7.01261,0 0,7.012605 -7.01261,0 m 14.02521,28.05042 0,-35.063025 -7.0126,0 0,-7.012606 7.0126,0 0,-7.012605 7.01261,0 0,49.088236 -7.01261,0 m 21.03782,-49.088236 -7.01261,0 0,-7.012605 -14.02521,0 0,7.012605 -7.0126,0 0,7.012605 -14.02521,0 0,-7.012605 -7.01261,0 0,-7.012605 -14.02521,0 0,7.012605 -7.0126,0 0,56.100838 7.0126,0 0,7.01261 21.03782,0 0,-21.037817 14.02521,0 0,14.025207 7.0126,0 0,7.01261 21.03782,0 0,-63.113448 m -112.201684,49.088236 0,-7.012605 21.037814,0 0,7.012605 -21.037814,0 m -7.012605,-7.012605 0,-35.063026 7.012605,0 0,35.063026 -7.012605,0 m 28.050419,0 0,-35.063026 7.01261,0 0,35.063026 -7.01261,0 m -21.037814,-35.063026 0,-7.012605 21.037814,0 0,7.012605 -21.037814,0 m 42.075634,0 -7.01261,0 0,-7.012605 -7.0126,0 0,-7.012605 -28.050424,0 0,7.012605 -7.012605,0 0,7.012605 -7.012605,0 0,42.075631 7.012605,0 0,7.012602 7.012605,0 0,7.01261 35.063024,0 0,-7.01261 7.01261,0 0,-49.088233 m -98.176475,42.075631 0,-7.012605 28.05042,0 0,7.012605 -28.05042,0 m -7.012606,-7.012605 0,-35.063026 7.012606,0 0,35.063026 -7.012606,0 m 7.012606,-35.063026 0,-7.012605 28.05042,0 0,7.012605 -28.05042,0 m 42.075631,35.063026 -7.012606,0 0,-7.012605 -14.02521,0 0,-14.02521 21.037816,0 0,-21.037816 -7.012606,0 0,-7.012605 -35.063025,0 0,7.012605 -7.012606,0 0,7.012605 -7.012605,0 0,42.075631 7.012605,0 0,7.012602 7.012606,0 0,7.01261 42.075631,0 0,-21.037817"
         inkscape:connector-curvature="0" />
    </g>
    <g
       style="font-size:79.2142868px;font-style:normal;font-weight:normal;line-height:125%;letter-spacing:0px;word-spacing:0px;fill:#000000;fill-opacity:1;stroke:none;font-family:Sans"
       id="text2989"
       transform="translate(0,-6)">
      <text
         xml:space="preserve"
         style="font-size:40px;font-style:normal;font-weight:normal;line-height:125%;letter-spacing:0px;word-spacing:0px;fill:#000000;fill-opacity:1;stroke:none;font-family:Sans"
         x="14.642857"
         y="187.14285"
         id="text3030"
         sodipodi:linespacing="125%"><tspan
           sodipodi:role="line"
           id="tspan3032"
           x="14.642857"
           y="187.14285"></tspan></text>
      <g
         style="font-size:40px;line-height:125%;fill:#000000;font-family:Sans"
         id="text3034">
        <path
           id="path3043"
           style="font-variant:normal;font-stretch:normal;fill:#d3371e;font-family:Fipps;-inkscape-font-specification:Fipps"
           d="m 187.71428,208.35714 0,-9.96428 39.85714,0 0,9.96428 -39.85714,0 m -9.96428,-9.96428 0,-49.82143 9.96428,0 0,49.82143 -9.96428,0 m 9.96428,-49.82143 0,-9.96429 39.85714,0 0,9.96429 -39.85714,0 m 59.78572,49.82143 -9.96429,0 0,-9.96429 -19.92857,0 0,-19.92857 29.89286,0 0,-29.89286 -9.96429,0 0,-9.96428 -49.82143,0 0,9.96428 -9.96428,0 0,9.96429 -9.96429,0 0,59.78571 9.96429,0 0,9.96429 9.96428,0 0,9.96428 59.78572,0 0,-29.89285 m -139.5,9.96428 0,-9.96428 29.89286,0 0,9.96428 -29.89286,0 m -9.96429,-9.96428 0,-49.82143 9.96429,0 0,49.82143 -9.96429,0 m 39.85715,0 0,-49.82143 9.96428,0 0,49.82143 -9.96428,0 M 108,148.57143 l 0,-9.96428 29.89286,0 0,9.96428 -29.89286,0 m 59.78571,0 -9.96428,0 0,-9.96428 -9.96429,0 0,-9.96429 -39.85714,0 0,9.96429 -9.96429,0 0,9.96428 -9.964283,0 0,59.78571 9.964283,0 0,9.96429 9.96429,0 0,9.96428 49.82143,0 0,-9.96428 9.96428,0 0,-69.75 m -149.464283,59.78571 0,-9.96428 39.857143,0 0,9.96428 -39.857143,0 m 0,-39.85714 0,-19.92857 9.964285,0 0,19.92857 -9.964285,0 m 9.964285,9.96429 0,-9.96429 29.892858,0 0,9.96429 -29.892858,0 m 29.892858,19.92857 0,-19.92857 9.964285,0 0,19.92857 -9.964285,0 m -29.892858,-49.82143 0,-9.96428 39.857143,0 0,9.96428 -39.857143,0 m 59.785715,29.89286 -9.964286,0 0,-9.96429 9.964286,0 0,-29.89285 -9.964286,0 0,-9.96429 -49.821429,0 0,9.96429 -9.964285,0 0,9.96428 -9.964286,0 0,29.89286 9.964286,0 0,19.92857 -9.964286,0 0,19.92857 9.964286,0 0,9.96428 59.785714,0 0,-9.96428 9.964286,0 0,-39.85714"
           inkscape:connector-curvature="0" />
      </g>
    </g>
  </g>
</svg>
