<?xml version="1.0" encoding="UTF-8" standalone="no"?>
<!-- Created with Inkscape (http://www.inkscape.org/) -->

<svg
   xmlns:dc="http://purl.org/dc/elements/1.1/"
   xmlns:cc="http://creativecommons.org/ns#"
   xmlns:rdf="http://www.w3.org/1999/02/22-rdf-syntax-ns#"
   xmlns:svg="http://www.w3.org/2000/svg"
   xmlns="http://www.w3.org/2000/svg"
   xmlns:sodipodi="http://sodipodi.sourceforge.net/DTD/sodipodi-0.dtd"
   xmlns:inkscape="http://www.inkscape.org/namespaces/inkscape"
   width="290"
   height="52"
   id="svg2"
   version="1.1"
   inkscape:version="0.48.4 r9939"
   sodipodi:docname="compsoc.svg">
  <defs
     id="defs4" />
  <sodipodi:namedview
     id="base"
     pagecolor="#ffffff"
     bordercolor="#666666"
     borderopacity="1.0"
     inkscape:pageopacity="0.0"
     inkscape:pageshadow="2"
     inkscape:zoom="4.0375797"
     inkscape:cx="151.89942"
     inkscape:cy="55.753847"
     inkscape:document-units="px"
     inkscape:current-layer="layer1"
     showgrid="false"
     inkscape:window-width="1855"
     inkscape:window-height="1056"
     inkscape:window-x="65"
     inkscape:window-y="24"
     inkscape:window-maximized="1" />
  <metadata
     id="metadata7">
    <rdf:RDF>
      <cc:Work
         rdf:about="">
        <dc:format>image/svg+xml</dc:format>
        <dc:type
           rdf:resource="http://purl.org/dc/dcmitype/StillImage" />
      </cc:Work>
    </rdf:RDF>
  </metadata>
  <g
     inkscape:label="Layer 1"
     inkscape:groupmode="layer"
     id="layer1">
    <g
       style="font-size:40px;font-style:normal;font-variant:normal;font-weight:normal;font-stretch:normal;line-height:125%;letter-spacing:0px;word-spacing:0px;fill:#000000;fill-opacity:1;stroke:none;font-family:Fipps;-inkscape-font-specification:Fipps"
       id="text2985"
       transform="translate(-17.663793,-30.637931)">
      <path
         id="path3017"
         d="m 158.16379,57.137931 0,15 -5,0 0,-35 20,0 0,5 -15,0 0,10 15,0 0,5 -15,0 m 15,-5 0,-10 5,0 0,10 -5,0 m 15,-10 -5,0 0,-5 -5,0 0,-5 -25,0 0,5 -5,0 0,40 5,0 0,5 15,0 0,-15 10,0 0,-5 5,0 0,-5 5,0 0,-15 m -79.7,5 0,25 -5,0 0,-35 5,0 0,5 5,0 0,5 -5,0 m 10,10 0,-5 5,0 0,5 -5,0 m -5,-5 0,-5 5,0 0,5 -5,0 m 10,0 0,-5 5,0 0,5 -5,0 m 10,20 0,-25 -5,0 0,-5 5,0 0,-5 5,0 0,35 -5,0 m 15,-35 -5,0 0,-5 -10,0 0,5 -5,0 0,5 -10,0 0,-5 -5,0 0,-5 -10,0 0,5 -4.999997,0 0,40 4.999997,0 0,5 15,0 0,-15 10,0 0,10 5,0 0,5 15,0 0,-45 m -79.899997,35 0,-5 15,0 0,5 -15,0 m -5,-5 0,-25 5,0 0,25 -5,0 m 20,0 0,-25 5,0 0,25 -5,0 m -15,-25 0,-5 15,0 0,5 -15,0 m 30,0 -5,0 0,-5 -5,0 0,-5 -20,0 0,5 -5,0 0,5 -5,0 0,30 5,0 0,5 5,0 0,5 25,0 0,-5 5,0 0,-35 m -69.9,30 0,-5 20,0 0,5 -20,0 m -5,-5 0,-25 5,0 0,25 -5,0 m 5,-25 0,-5 20,0 0,5 -20,0 m 30,25 -5,0 0,-5 -10,0 0,-10 15,0 0,-15 -5,0 0,-5 -25,0 0,5 -5,0 0,5 -5,0 0,30 5,0 0,5 5,0 0,5 30,0 0,-15" />
    </g>
    <g
       style="font-size:40px;font-style:normal;font-variant:normal;font-weight:normal;font-stretch:normal;line-height:125%;letter-spacing:0px;word-spacing:0px;fill:#ce0e00;fill-opacity:1;stroke:none;font-family:Fipps;-inkscape-font-specification:Fipps"
       id="text2995"
       transform="translate(-21.7,-28.862183)">
      <path
         id="path3008"
         d="m 281.3,70.362183 0,-5 20,0 0,5 -20,0 m -5,-5 0,-25 5,0 0,25 -5,0 m 5,-25 0,-5 20,0 0,5 -20,0 m 30,25 -5,0 0,-5 -10,0 0,-10 15,0 0,-15 -5,0 0,-5 -25,0 0,5 -5,0 0,5 -5,0 0,30 5,0 0,5 5,0 0,5 30,0 0,-15 m -69.5,5 0,-5 15,0 0,5 -15,0 m -5,-5 0,-25 5,0 0,25 -5,0 m 20,0 0,-25 5,0 0,25 -5,0 m -15,-25 0,-5 15,0 0,5 -15,0 m 30,0 -5,0 0,-5 -5,0 0,-5 -20,0 0,5 -5,0 0,5 -5,0 0,30 5,0 0,5 5,0 0,5 25,0 0,-5 5,0 0,-35 m -74.8,30 0,-5 20,0 0,5 -20,0 m 0,-20 0,-10 5,0 0,10 -5,0 m 5,5 0,-5 15,0 0,5 -15,0 m 15,10 0,-10 5,0 0,10 -5,0 m -15,-25 0,-5 20,0 0,5 -20,0 m 30,15 -5,0 0,-5 5,0 0,-15 -5,0 0,-5 -25,0 0,5 -5,0 0,5 -5,0 0,15 5,0 0,10 -5,0 0,10 5,0 0,5 30,0 0,-5 5,0 0,-20" />
    </g>
  </g>
</svg>
