<?xml version="1.0" encoding="UTF-8" standalone="no"?>
<!-- Created with Inkscape (http://www.inkscape.org/) -->

<svg
   xmlns:dc="http://purl.org/dc/elements/1.1/"
   xmlns:cc="http://creativecommons.org/ns#"
   xmlns:rdf="http://www.w3.org/1999/02/22-rdf-syntax-ns#"
   xmlns:svg="http://www.w3.org/2000/svg"
   xmlns="http://www.w3.org/2000/svg"
   xmlns:sodipodi="http://sodipodi.sourceforge.net/DTD/sodipodi-0.dtd"
   xmlns:inkscape="http://www.inkscape.org/namespaces/inkscape"
   version="1.1"
   width="297.9183"
   height="300"
   id="svg2"
   inkscape:version="0.48.4 r9939"
   sodipodi:docname="UoE-Mono.svg">
  <sodipodi:namedview
     pagecolor="#ffffff"
     bordercolor="#666666"
     borderopacity="1"
     objecttolerance="10"
     gridtolerance="10"
     guidetolerance="10"
     inkscape:pageopacity="0"
     inkscape:pageshadow="2"
     inkscape:window-width="1855"
     inkscape:window-height="1056"
     id="namedview226"
     showgrid="false"
     inkscape:zoom="1.5733333"
     inkscape:cx="129.20338"
     inkscape:cy="137.43148"
     inkscape:window-x="65"
     inkscape:window-y="24"
     inkscape:window-maximized="1"
     inkscape:current-layer="g5153" />
  <defs
     id="defs4">
    <clipPath
       id="clipPath5807">
      <path
         d="m 163.469,312.592 155.37,0 0,48.506 -155.37,0 0,-48.506 z"
         id="path5809" />
    </clipPath>
    <clipPath
       id="clipPath5511">
      <path
         d="m 163.469,312.592 155.37,0 0,111.187 -155.37,0 0,-111.187 z"
         id="path5513" />
    </clipPath>
    <clipPath
       id="clipPath5503">
      <path
         d="m 166.397,427.17 154.943,0 0,-110.674 -154.943,0 0,110.674 z"
         id="path5505" />
    </clipPath>
    <clipPath
       id="clipPath5495">
      <path
         d="m 178.11,423.779 140.728,0 0,-107.283 -140.728,0 0,107.283 z"
         id="path5497" />
    </clipPath>
    <clipPath
       id="clipPath5487">
      <path
         d="m 178.11,423.779 140.728,0 0,-107.283 -140.728,0 0,107.283 z"
         id="path5489" />
    </clipPath>
    <clipPath
       id="clipPath5479">
      <path
         d="m 178.11,315.993 131.433,0 0,109.912 -131.433,0 0,-109.912 z"
         id="path5481" />
    </clipPath>
    <clipPath
       id="clipPath5155">
      <path
         d="m 535.9,212.355 82.904,0 0,82.904 -82.904,0 0,-82.904 z"
         id="path5157" />
    </clipPath>
    <clipPath
       id="clipPath5051">
      <path
         d="m 507.862,285.896 134.532,0 0,-107.625 -134.532,0 0,107.625 z"
         id="path5053" />
    </clipPath>
    <clipPath
       id="clipPath5043">
      <path
         d="m 514.772,281.678 121.184,0 0,-99.127 -121.184,0 0,99.127 z"
         id="path5045" />
    </clipPath>
    <clipPath
       id="clipPath5035">
      <path
         d="m 514.772,281.678 121.184,0 0,-99.127 -121.184,0 0,99.127 z"
         id="path5037" />
    </clipPath>
    <clipPath
       id="clipPath5027">
      <path
         d="m 508.819,170.094 138.722,0 0,119.04 -138.722,0 0,-119.04 z"
         id="path5029" />
    </clipPath>
    <clipPath
       id="clipPath4743">
      <path
         d="m 550.877,366.519 53.918,0 0,54.295 -53.918,0 0,-54.295 z"
         id="path4745" />
    </clipPath>
    <clipPath
       id="clipPath4637">
      <path
         d="m 508.819,425.197 133.701,0 0,-106.96 -133.701,0 0,106.96 z"
         id="path4639" />
    </clipPath>
    <clipPath
       id="clipPath4629">
      <path
         d="m 508.819,425.197 133.701,0 0,-106.96 -133.701,0 0,106.96 z"
         id="path4631" />
    </clipPath>
    <clipPath
       id="clipPath4621">
      <path
         d="m 508.819,425.197 133.701,0 0,-106.96 -133.701,0 0,106.96 z"
         id="path4623" />
    </clipPath>
    <clipPath
       id="clipPath4613">
      <path
         d="m 508.819,306.157 138.722,0 0,119.04 -138.722,0 0,-119.04 z"
         id="path4615" />
    </clipPath>
    <clipPath
       id="clipPath4333">
      <path
         d="m 218.43,82.792 54.778,0 0,55.16 -54.778,0 0,-55.16 z"
         id="path4335" />
    </clipPath>
    <clipPath
       id="clipPath4225">
      <path
         d="m 175.609,142.468 136.107,0 0,-108.886 -136.107,0 0,108.886 z"
         id="path4227" />
    </clipPath>
    <clipPath
       id="clipPath4217">
      <path
         d="m 182.6,137.953 122.603,0 0,-100.04 -122.603,0 0,100.04 z"
         id="path4219" />
    </clipPath>
    <clipPath
       id="clipPath4209">
      <path
         d="m 182.6,137.953 122.603,0 0,-100.04 -122.603,0 0,100.04 z"
         id="path4211" />
    </clipPath>
    <clipPath
       id="clipPath4201">
      <path
         d="m 177.058,24.818 138.722,0 0,119.04 -138.722,0 0,-119.04 z"
         id="path4203" />
    </clipPath>
    <clipPath
       id="clipPath3985">
      <path
         d="m 177.058,163.716 138.722,0 0,119.04 -138.722,0 0,-119.04 z"
         id="path3987" />
    </clipPath>
    <clipPath
       id="clipPath3027">
      <path
         d="m 7.211,464.173 131.687,0 0,113.552 -131.687,0 0,-113.552 z"
         id="path3029" />
    </clipPath>
    <clipPath
       id="clipPath3013">
      <path
         d="m -9.50394,604.779 151.98594,0 0,-614.28303 -151.98594,0 0,614.28303 z"
         id="path3015" />
    </clipPath>
    <clipPath
       id="clipPath2999">
      <path
         d="m 0,0 841.89,0 0,595.276 L 0,595.276 0,0 z"
         id="path3001" />
    </clipPath>
    <clipPath
       id="clipPath5027-9">
      <path
         d="m 508.819,170.094 138.722,0 0,119.04 -138.722,0 0,-119.04 z"
         id="path5029-4" />
    </clipPath>
    <clipPath
       id="clipPath5035-8">
      <path
         d="m 514.772,281.678 121.184,0 0,-99.127 -121.184,0 0,99.127 z"
         id="path5037-8" />
    </clipPath>
    <clipPath
       id="clipPath5043-2">
      <path
         d="m 514.772,281.678 121.184,0 0,-99.127 -121.184,0 0,99.127 z"
         id="path5045-4" />
    </clipPath>
    <clipPath
       id="clipPath5051-5">
      <path
         d="m 507.862,285.896 134.532,0 0,-107.625 -134.532,0 0,107.625 z"
         id="path5053-5" />
    </clipPath>
    <clipPath
       id="clipPath5155-1">
      <path
         d="m 535.9,212.355 82.904,0 0,82.904 -82.904,0 0,-82.904 z"
         id="path5157-7" />
    </clipPath>
  </defs>
  <metadata
     id="metadata7">
    <rdf:RDF>
      <cc:Work
         rdf:about="">
        <dc:format>image/svg+xml</dc:format>
        <dc:type
           rdf:resource="http://purl.org/dc/dcmitype/StillImage" />
        <dc:title />
      </cc:Work>
    </rdf:RDF>
  </metadata>
  <g
     transform="translate(-339.91671,-441.36686)"
     id="layer1">
    <g
       transform="matrix(5.4492933,0,0,-5.4492933,-2658.0338,1976.3129)"
       id="g5151">
      <g
         clip-path="url(#clipPath5155-1)"
         id="g5153">
        <path
           style="fill:#ffffff"
           d="m 575.96973,227.64371 c 0.19321,0.2135 0.24601,0.58033 0.24601,1.70944 0,1.2394 -0.041,1.47858 -0.2973,1.73489 -0.29729,0.29729 -0.29729,0.29729 0.21966,0.29729 0.47105,0 0.61779,-0.12208 1.65274,-1.37498 0.62467,-0.75623 1.2007,-1.44187 1.28006,-1.52363 0.0935,-0.0963 0.12654,0.3441 0.0938,1.25116 -0.0342,0.94984 -0.11016,1.41969 -0.23622,1.46169 -0.38523,0.12832 -0.16491,0.33441 0.35749,0.33441 0.51283,0 0.52979,-0.0149 0.30228,-0.26633 -0.18814,-0.20789 -0.25026,-0.65633 -0.28317,-2.04389 l -0.0421,-1.77757 -1.41214,1.69004 c -1.58392,1.89559 -1.55603,1.89853 -1.46282,-0.15406 0.0427,-0.93971 0.10719,-1.19419 0.34881,-1.37681 0.27881,-0.2107 0.25748,-0.22431 -0.35834,-0.22876 -0.62502,-0.004 -0.64359,0.008 -0.40877,0.26711 z m -4.47353,0.42765 c -0.38711,0.0745 -0.41687,0.16861 -0.12623,0.39898 0.11452,0.0908 0.35498,0.85288 0.53438,1.69358 0.25904,1.21398 0.28893,1.57341 0.1452,1.74659 -0.21508,0.25916 -0.10951,0.26857 0.64952,0.0578 0.5053,-0.14031 0.54188,-0.17995 0.31747,-0.34405 -0.33085,-0.24192 -0.97742,-3.02851 -0.78836,-3.39768 0.13997,-0.27334 0.0168,-0.29945 -0.73198,-0.15523 z m 11.82737,0.0853 c 0.20692,0.24933 0.17515,0.43396 -0.43226,2.51234 -0.19293,0.66014 -0.37636,1.01361 -0.54714,1.0543 -0.43834,0.10443 0.53567,0.42799 1.54811,0.51426 0.87055,0.0742 0.92562,0.0588 1.18125,-0.33141 0.25055,-0.38237 0.25219,-0.43702 0.025,-0.83287 -0.23778,-0.41429 -0.23445,-0.42782 0.15116,-0.61321 0.21687,-0.10422 0.4957,-0.37045 0.61962,-0.59154 0.20807,-0.37119 0.20166,-0.43366 -0.0838,-0.81598 -0.20887,-0.27976 -0.59349,-0.50002 -1.18612,-0.67926 -0.48236,-0.14589 -1.01027,-0.30675 -1.17315,-0.35748 -0.25518,-0.0795 -0.26938,-0.06 -0.10266,0.14085 z m 1.72682,0.6018 c 0.69849,0.51076 0.0223,1.70033 -0.86566,1.52276 -0.24236,-0.0485 -0.46907,-0.11656 -0.5038,-0.15128 -0.0347,-0.0347 0.0494,-0.40194 0.18691,-0.81601 0.20085,-0.6047 0.31526,-0.75287 0.58133,-0.75287 0.18219,0 0.45274,0.0888 0.60122,0.1974 z m -0.62192,1.9986 c 0.68796,0.60412 -0.27733,1.73272 -1.05867,1.23778 -0.17122,-0.10851 -0.17263,-0.25137 -0.009,-0.89062 0.17015,-0.66387 0.23436,-0.74953 0.50124,-0.6685 0.16835,0.0511 0.42315,0.19571 0.56623,0.32134 z m -18.98629,-0.50535 c -0.77255,0.35847 -0.97084,0.50674 -0.77712,0.58109 0.24888,0.0955 1.59135,2.76135 1.59135,3.16005 0,0.10565 -0.0836,0.22575 -0.18581,0.26699 -0.14616,0.059 -0.14537,0.0775 0.003,0.0867 0.37923,0.0235 2.23294,-1.0243 2.61457,-1.47784 0.71159,-0.84568 0.43304,-2.38392 -0.52827,-2.91737 -0.59576,-0.33061 -1.59708,-0.21997 -2.71844,0.30036 z m 2.70947,0.53421 c 0.39334,0.58184 0.45318,1.70159 0.11663,2.18209 -0.26895,0.384 -1.25612,0.86974 -1.41953,0.6985 -0.0661,-0.0691 -0.40243,-0.75639 -0.74757,-1.52714 -0.70845,-1.58205 -0.68619,-1.7666 0.24559,-2.035 0.7504,-0.21616 1.35148,0.011 1.80488,0.68155 z m 21.32526,0.0887 c -0.1825,0.12783 -0.63558,0.75904 -1.00684,1.40269 -0.37126,0.64367 -0.78782,1.19202 -0.92569,1.21856 -0.17834,0.0344 -0.0879,0.14432 0.31335,0.38106 0.69055,0.40744 0.66879,0.40776 0.58917,-0.009 -0.0612,-0.32037 0.71456,-1.85784 1.27157,-2.51992 0.48241,-0.57345 1.80788,-0.0155 1.80788,0.76098 0,0.42508 -1.23181,2.44458 -1.60577,2.6326 -0.30428,0.15298 -0.29039,0.17674 0.29657,0.50662 0.53391,0.30007 0.6024,0.31112 0.51488,0.083 -0.11694,-0.30473 1.23616,-2.78173 1.69521,-3.10326 0.27508,-0.19266 0.27175,-0.20686 -0.0946,-0.40291 -0.31613,-0.16918 -0.40026,-0.16996 -0.50243,-0.004 -0.0934,0.15109 -0.14629,0.12435 -0.22124,-0.11184 -0.14636,-0.46113 -0.94045,-1.06669 -1.39879,-1.06669 -0.2208,0 -0.55078,0.10454 -0.73328,0.23242 z m -29.05881,2.69171 c -0.96017,0.79598 -0.99201,0.84272 -0.68088,0.99935 0.17952,0.0903 0.7527,0.68799 1.27372,1.32803 0.72812,0.89448 0.92458,1.23536 0.84907,1.47325 -0.0691,0.21774 0.23758,0.0351 1.03424,-0.61585 0.62285,-0.50896 1.13246,-0.97977 1.13246,-1.04627 0,-0.0665 -0.11285,-0.2127 -0.2508,-0.32491 -0.22047,-0.17933 -0.2386,-0.17148 -0.14995,0.0648 0.0731,0.19486 -0.0523,0.40955 -0.45526,0.77968 -0.30587,0.28094 -0.60068,0.51111 -0.65513,0.5115 -0.0545,4.5e-4 -0.31805,-0.27588 -0.58579,-0.61393 l -0.4868,-0.61463 0.48431,-0.43274 c 0.35525,-0.31741 0.57077,-0.40618 0.80876,-0.3331 0.31242,0.0959 0.31068,0.0847 -0.0472,-0.30428 -0.32883,-0.3574 -0.3773,-0.37237 -0.42097,-0.12994 -0.0271,0.15067 -0.25486,0.43809 -0.50604,0.6387 l -0.45668,0.36476 -0.49733,-0.57532 c -0.27353,-0.31644 -0.49733,-0.63066 -0.49733,-0.69828 0,-0.0676 0.26859,-0.31751 0.59686,-0.55531 0.40825,-0.29574 0.70183,-0.40532 0.92904,-0.34677 0.29576,0.0762 0.30981,0.0583 0.12818,-0.16316 -0.11221,-0.13681 -0.27944,-0.24695 -0.37162,-0.24473 -0.0922,0.002 -0.62089,0.37979 -1.1749,0.83906 z m 16.68952,-0.44619 c -4.37908,0.23889 -7.37201,1.15082 -10.96515,3.34101 -2.89563,1.76503 -6.00299,5.18875 -7.56626,8.33655 -1.47078,2.96157 -1.95673,4.96712 -2.0827,8.59518 -0.15114,4.35339 0.39461,6.89379 2.26765,10.55557 1.00053,1.956 2.04995,3.3856 3.74172,5.0972 3.04517,3.08086 6.36133,4.99218 10.41251,6.00142 1.4201,0.35379 1.8782,0.39705 4.26655,0.40291 3.95811,0.01 6.67759,-0.61579 9.94493,-2.28746 4.30044,-2.20023 7.30613,-5.21956 9.36268,-9.40514 1.68634,-3.43214 2.25666,-6.10264 2.11985,-9.92629 -0.21435,-5.99125 -1.92267,-10.01883 -6.10867,-14.40199 -3.22923,-3.38135 -7.80074,-5.63338 -12.56791,-6.19122 -1.02145,-0.11953 -1.89103,-0.20496 -1.93241,-0.18984 -0.0414,0.0151 -0.44313,0.0475 -0.89279,0.0721 z m 3.71616,1.24259 1.2635,0.2564 -1.92497,0.0183 c -2.7874,0.0265 -2.14293,0.26871 0.99472,0.37393 1.78209,0.0598 2.79432,0.15711 3.12158,0.3002 0.44108,0.19286 0.22147,0.21284 -2.46023,0.22389 -1.9222,0.008 -2.91265,0.0637 -2.85268,0.16078 0.0566,0.0915 1.35867,0.15103 3.39048,0.15487 2.9633,0.006 3.35151,0.0352 3.81888,0.29106 l 0.52027,0.28483 -0.66891,0.0128 c -0.3679,0.007 -1.77261,0.0126 -3.12158,0.0121 -1.69802,-4.5e-4 -2.34651,0.043 -2.10765,0.14118 0.18976,0.078 1.72825,0.14711 3.41887,0.15355 2.55373,0.01 3.16189,0.0539 3.59412,0.26102 l 0.52026,0.2493 -0.6689,0.0759 -0.66892,0.0759 0.50169,0.10984 c 0.27592,0.0604 0.72364,0.10984 0.99494,0.10984 0.29667,0 0.57066,0.10366 0.68749,0.26013 0.10686,0.14307 0.56213,0.50952 1.01178,0.81432 1.05043,0.71202 2.52463,2.19577 2.18165,2.19577 -0.13708,0 -0.24924,0.0669 -0.24924,0.14865 0,0.0817 0.15904,0.14864 0.35342,0.14864 0.19438,0 0.43671,0.10036 0.53851,0.22304 0.1564,0.18844 0.11312,0.23743 -0.27909,0.31587 -0.68048,0.1361 -0.56588,0.35297 0.18652,0.35297 0.39707,0 0.72284,0.0869 0.83576,0.22297 0.16075,0.1937 0.0753,0.22298 -0.65072,0.22298 -1.17568,0 -1.04522,0.27442 0.15577,0.32766 0.62775,0.0278 1.01404,0.11212 1.05291,0.22976 0.0452,0.13694 -0.21554,0.18581 -0.99152,0.18581 -0.83281,0 -1.05292,0.0462 -1.05292,0.22107 0,0.18433 0.18468,0.20547 1.11091,0.12717 0.79722,-0.0674 1.17498,-0.0407 1.33783,0.0944 0.4353,0.36127 0.21781,0.44922 -1.11091,0.44922 -0.79278,0 -1.33783,0.0606 -1.33783,0.14865 0,0.0892 0.59459,0.14864 1.48648,0.14864 0.81755,0 1.48647,0.028 1.48647,0.0622 0,0.0342 0.0423,0.17245 0.0941,0.30725 0.0844,0.21994 -0.0682,0.24024 -1.48678,0.19796 -1.4876,-0.0443 -1.88895,0.0256 -1.34507,0.23428 0.12932,0.0496 0.89141,0.0902 1.69353,0.0902 1.1451,0 1.4764,0.0469 1.54214,0.21821 0.14048,0.36607 -0.16533,0.41691 -1.85084,0.30767 -1.12938,-0.0732 -1.61996,-0.0562 -1.61996,0.0561 0,0.15588 0.60985,0.20475 2.82223,0.22617 0.79556,0.008 0.9729,0.0548 1.01426,0.26947 0.0457,0.23703 -0.12242,0.26013 -1.89318,0.26013 -1.19644,0 -1.94331,0.0571 -1.94331,0.14864 0,0.0918 0.76627,0.14865 2.0015,0.14865 1.8663,0 2.01253,0.0206 2.16476,0.30504 0.16163,0.30202 0.14184,0.30459 -2.00174,0.26012 -1.65693,-0.0344 -2.16493,-0.001 -2.16476,0.14091 1.6e-4,0.14033 0.54222,0.18581 2.21404,0.18581 1.75263,0 2.2303,0.043 2.29306,0.20658 0.10554,0.27508 -0.50434,0.39026 -1.52905,0.28872 -0.88853,-0.088 -2.97773,0.0687 -2.97796,0.22345 -7e-5,0.0544 1.05228,0.0988 2.33859,0.0988 2.10896,0 2.3437,0.0256 2.38939,0.26013 0.0465,0.23906 -0.14291,0.26013 -2.33859,0.26013 -1.49372,0 -2.38924,0.0557 -2.38924,0.14865 0,0.0931 0.91135,0.14864 2.43676,0.14864 1.92487,0 2.45318,0.0427 2.51484,0.20343 0.099,0.25802 -1.23491,0.41682 -2.44413,0.29097 -0.46039,-0.048 -1.21291,-0.0401 -1.67227,0.0172 -1.60286,0.20026 -0.81628,0.33046 1.69179,0.28004 2.44811,-0.0492 2.527,-0.0415 2.527,0.24768 0,0.28716 -0.0957,0.29848 -2.527,0.29848 -1.58557,0 -2.52699,0.0554 -2.52699,0.14864 0,0.0934 0.9662,0.14865 2.60132,0.14865 2.52113,0 2.60132,0.009 2.60132,0.30391 0,0.29622 -0.0659,0.30282 -2.60151,0.26014 -2.05282,-0.0345 -2.60145,-0.003 -2.60131,0.14869 1.4e-4,0.14966 0.47138,0.1871 2.11839,0.16827 3.07678,-0.0352 3.23307,-0.0238 3.23307,0.23384 0,0.18993 -0.39639,0.22296 -2.67564,0.22296 -1.68466,0 -2.67564,0.055 -2.67564,0.14865 0,0.0936 0.99098,0.14865 2.67564,0.14865 2.57654,0 2.67564,0.011 2.67564,0.29729 0,0.28629 -0.0991,0.29729 -2.67564,0.29729 -1.68466,0 -2.67564,0.055 -2.67564,0.14865 0,0.0937 1.01575,0.14865 2.74997,0.14865 2.65086,0 2.74995,0.011 2.74995,0.29729 0,0.28659 -0.0991,0.29729 -2.74995,0.29729 -1.73422,0 -2.74997,0.0549 -2.74997,0.14865 0,0.0937 1.01575,0.14864 2.74997,0.14864 2.34531,0 2.74995,0.0329 2.74995,0.22298 0,0.19016 -0.40464,0.22297 -2.74995,0.22297 -1.6919,0 -2.74997,0.0559 -2.74997,0.14529 0,0.0878 1.07274,0.16132 2.7128,0.18581 2.29428,0.0343 2.71281,0.0749 2.71281,0.26349 0,0.18857 -0.41853,0.22921 -2.71281,0.26348 -1.64006,0.0245 -2.7128,0.0979 -2.7128,0.18581 0,0.0892 1.03215,0.14529 2.67564,0.14529 2.16023,0 2.67564,0.039 2.67564,0.20268 0,0.22468 -2.09005,0.39132 -4.19927,0.33481 -0.6336,-0.017 -1.15201,0.0224 -1.15201,0.0874 0,0.1145 0.5914,0.13734 3.83519,0.14815 1.33457,0.004 1.52518,0.0363 1.48456,0.24776 -0.0407,0.21172 -0.38277,0.24783 -2.68318,0.28325 -1.5894,0.0245 -2.63657,0.0983 -2.63657,0.18581 0,0.089 1.00716,0.14522 2.60132,0.14522 2.21318,0 2.60132,0.0333 2.60132,0.22297 0,0.25858 -0.19477,0.2725 -3.15875,0.22572 -1.40611,-0.0222 -2.04389,0.0188 -2.04389,0.13113 0,0.11171 0.72508,0.16341 2.29187,0.16341 2.43968,0 2.79042,0.0506 2.66251,0.38392 -0.0652,0.16994 -0.55196,0.21066 -2.51762,0.21066 -1.52541,0 -2.43676,0.0556 -2.43676,0.14866 0,0.093 0.89552,0.14864 2.38924,0.14864 2.19619,0 2.38505,0.0211 2.33725,0.26013 -0.0473,0.23679 -0.2617,0.25618 -2.38923,0.2161 -1.36459,-0.0257 -2.33726,0.0132 -2.33726,0.0935 0,0.0756 1.0321,0.18588 2.29354,0.24501 1.87332,0.0878 2.27893,0.14555 2.2138,0.31529 -0.0634,0.16511 -0.53462,0.20781 -2.29354,0.20781 -1.37677,0 -2.2138,0.0562 -2.2138,0.14865 0,0.0921 0.79642,0.14864 2.09195,0.14864 1.91241,0 2.08764,0.0224 2.04164,0.26014 -0.0457,0.23585 -0.24083,0.2551 -2.09196,0.20623 -1.43198,-0.0378 -2.04163,-0.004 -2.04163,0.11149 0,0.15882 0.81309,0.21014 3.0193,0.19062 0.73348,-0.007 0.85665,0.0303 0.81573,0.24369 -0.0417,0.21766 -0.30182,0.25691 -1.94161,0.29294 -2.44491,0.0537 -2.53671,0.33001 -0.10962,0.33001 0.98108,0 1.78376,0.028 1.78376,0.0622 0,0.0342 -0.0406,0.16797 -0.0902,0.2973 -0.075,0.19536 -0.37661,0.23512 -1.78376,0.23512 -1.02992,0 -1.69354,0.0582 -1.69354,0.14865 0,0.0898 0.6235,0.14864 1.57318,0.14864 1.19232,0 1.55826,0.045 1.51156,0.18581 -0.0427,0.12854 -0.5275,0.19887 -1.57318,0.22817 -1.92825,0.054 -2.00696,0.32926 -0.0942,0.32926 1.37131,0 1.4122,0.01 1.25826,0.29729 -0.13986,0.26135 -0.31124,0.29729 -1.41737,0.29729 -1.57491,0 -1.67007,0.26913 -0.11604,0.32821 1.08817,0.0414 1.12986,0.0557 0.88126,0.30354 -0.18975,0.18915 -0.50143,0.26013 -1.14222,0.26013 -0.48841,0 -0.88127,0.0663 -0.88127,0.14866 0,0.0817 0.36581,0.14864 0.8129,0.14864 0.6615,0 0.79695,0.0416 0.72733,0.22296 -0.0599,0.15617 -0.30351,0.22298 -0.8129,0.22298 -0.40002,0 -0.72733,0.0669 -0.72733,0.14864 0,0.0817 0.24449,0.14866 0.54331,0.14866 0.53388,0 0.53864,0.006 0.27425,0.29729 -0.14798,0.16351 -0.39246,0.29729 -0.5433,0.29729 -0.31065,0 -0.37008,0.23369 -0.0884,0.3478 0.11352,0.046 -0.1612,0.39559 -0.70607,0.89848 l -0.89187,0.82318 -10.62824,0.043 c -5.84553,0.0236 -11.7817,0.0323 -13.1915,0.0192 l -2.56324,-0.0237 -0.69658,-0.61315 c -0.95465,-0.84031 -1.19178,-1.18973 -0.92295,-1.36 0.15573,-0.0986 0.13006,-0.13075 -0.10586,-0.13248 -0.17128,-0.001 -0.43249,-0.13605 -0.58047,-0.29956 -0.26438,-0.29214 -0.25963,-0.29729 0.27425,-0.29729 0.29883,0 0.54332,-0.0669 0.54332,-0.14866 0,-0.0817 -0.33211,-0.14864 -0.73801,-0.14864 -0.58587,0 -0.77081,-0.0613 -0.89711,-0.29729 -0.15094,-0.28203 -0.11305,-0.29729 0.738,-0.29729 1.26888,0 1.11862,-0.27528 -0.179,-0.32795 -0.90238,-0.0366 -1.08445,-0.0873 -1.12774,-0.31413 -0.0473,-0.24768 0.0432,-0.26382 1.07611,-0.19167 0.67651,0.0472 1.12775,0.0216 1.12775,-0.064 0,-0.16239 -0.30564,-0.19169 -1.52874,-0.14657 -0.80924,0.0299 -1.29555,-0.14295 -1.29555,-0.46035 0,-0.0718 0.63546,-0.13045 1.41214,-0.13045 0.84233,0 1.41215,-0.06 1.41215,-0.14865 0,-0.0896 -0.61407,-0.14864 -1.54489,-0.14864 -1.23612,0 -1.56199,-0.0446 -1.63045,-0.22298 -0.0644,-0.16776 0.0329,-0.22769 0.39287,-0.24201 0.26314,-0.011 0.67912,-0.0306 0.92438,-0.0447 0.24527,-0.0141 0.77482,-0.0389 1.17678,-0.0553 1.3524,-0.0549 0.55381,-0.22213 -1.13426,-0.23746 -1.46738,-0.0133 -1.67874,-0.0471 -1.72315,-0.27532 -0.046,-0.23619 0.11467,-0.26014 1.74405,-0.26014 1.09734,0 1.79467,-0.0578 1.79467,-0.14865 0,-0.0914 -0.74324,-0.14864 -1.93241,-0.14864 -1.06283,0 -1.93241,-0.028 -1.93241,-0.0622 0,-0.0342 -0.0406,-0.16797 -0.0902,-0.2973 -0.0795,-0.20733 0.14987,-0.23512 1.94118,-0.23512 1.40116,0 2.00101,-0.0492 1.93341,-0.15857 -0.0634,-0.10256 -0.81476,-0.14669 -2.12698,-0.12494 -1.78827,0.0297 -2.03469,0.004 -2.07705,-0.21305 -0.0429,-0.22036 0.17422,-0.24668 2.03511,-0.24668 1.22845,0 2.12088,-0.061 2.17505,-0.14864 0.0598,-0.0966 -0.71691,-0.14865 -2.22093,-0.14865 -1.95672,0 -2.31279,-0.0343 -2.31279,-0.22297 0,-0.12263 0.0836,-0.23008 0.18581,-0.23877 0.23734,-0.0202 1.32215,-0.0564 2.97293,-0.0991 0.79704,-0.0206 1.30065,-0.0948 1.30065,-0.19149 0,-0.10653 -0.74908,-0.14273 -2.30402,-0.11149 -1.26722,0.0255 -2.30403,0.0351 -2.30403,0.0213 0,-0.0138 -0.0406,-0.13082 -0.0902,-0.26013 -0.08,-0.20841 0.18185,-0.23513 2.30403,-0.23513 1.49707,0 2.39424,-0.0557 2.39424,-0.14864 0,-0.0931 -0.91134,-0.14866 -2.43676,-0.14866 -1.94296,0 -2.45283,-0.0419 -2.51604,-0.20657 -0.1161,-0.30257 0.5203,-0.38801 2.89033,-0.38801 1.36566,0 2.06247,-0.0537 2.06247,-0.15903 0,-0.10576 -0.63472,-0.15171 -1.89524,-0.13718 -3.13382,0.0362 -3.30739,0.0244 -3.30739,-0.22405 0,-0.1897 0.38814,-0.22297 2.60132,-0.22297 1.59416,0 2.60131,-0.0562 2.60131,-0.14522 0,-0.0876 -1.04783,-0.16134 -2.63848,-0.18581 -2.19364,-0.0337 -2.63847,-0.0771 -2.63847,-0.25728 0,-0.1738 0.29421,-0.22135 1.48647,-0.24027 0.81755,-0.013 2.00487,-0.0325 2.63848,-0.0435 0.67208,-0.0116 1.152,-0.0831 1.152,-0.17169 0,-0.0978 -0.85968,-0.14597 -2.4155,-0.13535 -3.05654,0.0208 -2.93577,0.0304 -2.93577,-0.23308 0,-0.18993 0.39639,-0.22297 2.67564,-0.22297 1.68466,0 2.67563,-0.055 2.67563,-0.14864 0,-0.0937 -1.01938,-0.14865 -2.76085,-0.14865 -2.54934,0 -2.75704,-0.02 -2.71089,-0.26014 0.0451,-0.23459 0.31599,-0.2641 2.76087,-0.30064 1.63881,-0.0245 2.71087,-0.0979 2.71087,-0.18581 0,-0.0894 -1.05806,-0.14529 -2.74996,-0.14529 -2.34531,0 -2.74996,-0.0329 -2.74996,-0.22297 0,-0.18793 0.3796,-0.22725 2.41551,-0.2502 1.32853,-0.015 2.56601,-0.0191 2.74996,-0.009 0.18395,0.01 0.33445,-0.0448 0.33445,-0.12141 0,-0.0818 -1.13638,-0.13948 -2.74996,-0.13948 -2.65086,0 -2.74996,-0.011 -2.74996,-0.29729 0,-0.28659 0.0992,-0.29729 2.74996,-0.29729 1.73422,0 2.74996,-0.0549 2.74996,-0.14866 0,-0.0937 -1.01938,-0.14864 -2.76085,-0.14864 -2.54934,0 -2.75704,-0.02 -2.71089,-0.26013 0.0451,-0.23461 0.31599,-0.26411 2.76087,-0.30065 1.63881,-0.0245 2.71087,-0.0979 2.71087,-0.18581 0,-0.0892 -1.03214,-0.14529 -2.67563,-0.14529 -2.27925,0 -2.67564,-0.0331 -2.67564,-0.22297 0,-0.18672 0.33232,-0.22521 2.04389,-0.23675 1.12414,-0.008 2.32818,-0.002 2.67564,0.0112 0.3589,0.0142 0.63174,-0.0426 0.63174,-0.13143 0,-0.10211 -0.91662,-0.17054 -2.63848,-0.19703 -2.22817,-0.0343 -2.63847,-0.0752 -2.63847,-0.26356 0,-0.1883 0.4103,-0.22928 2.63847,-0.26356 1.59065,-0.0245 2.63848,-0.0983 2.63848,-0.18581 0,-0.089 -1.00715,-0.14521 -2.60131,-0.14521 -2.10441,0 -2.60132,-0.0389 -2.60132,-0.2038 0,-0.27295 2.26782,-0.45145 3.95267,-0.3111 0.88442,0.0737 1.24996,0.0555 1.24996,-0.0621 0,-0.18369 -0.38514,-0.21198 -3.11802,-0.22899 -1.64205,-0.01 -1.86045,-0.0414 -1.90615,-0.27168 -0.0475,-0.23961 0.14868,-0.26014 2.48628,-0.26014 1.59284,0 2.53789,-0.0554 2.53789,-0.14865 0,-0.0931 -0.92077,-0.14864 -2.46505,-0.14864 -1.90577,0 -2.45109,-0.0421 -2.4035,-0.18581 0.0826,-0.24931 1.47655,-0.38997 3.34493,-0.33753 0.838,0.0235 1.52362,-0.007 1.52362,-0.0678 0,-0.18837 -1.62013,-0.28925 -3.14912,-0.1961 -1.2546,0.0764 -1.45891,0.0567 -1.45891,-0.14064 0,-0.35788 0.32266,-0.40998 2.53914,-0.40998 1.28017,0 2.06889,-0.0567 2.06889,-0.14865 0,-0.0923 -0.82118,-0.14864 -2.16627,-0.14864 -1.98352,0 -2.16195,-0.022 -2.11509,-0.26013 0.0365,-0.18571 0.19917,-0.26284 0.56833,-0.26956 0.28443,-0.006 1.23621,-0.0219 2.11509,-0.0372 0.94772,-0.0164 1.59794,-0.0882 1.59794,-0.17638 0,-0.0917 -0.77213,-0.14864 -2.01911,-0.14864 -1.54903,0 -2.00479,-0.0432 -1.95756,-0.18581 0.0432,-0.13043 0.63037,-0.20797 1.96995,-0.26013 1.28255,-0.05 1.92753,-0.13218 1.9668,-0.25074 0.044,-0.13279 -0.38878,-0.15497 -1.74966,-0.0898 -1.71919,0.0824 -1.80545,0.0728 -1.75406,-0.1952 0.0489,-0.25475 0.2221,-0.28592 1.79884,-0.32377 2.2401,-0.0538 2.33191,-0.32974 0.10973,-0.32974 -0.89931,0 -1.63512,-0.0587 -1.63512,-0.13044 0,-0.23481 0.38193,-0.45399 0.75208,-0.43161 0.19953,0.012 0.86446,0.008 1.47762,-0.01 0.85656,-0.0244 1.05304,-0.0677 0.84807,-0.18699 -0.14673,-0.0854 -0.79907,-0.13351 -1.44965,-0.10697 -0.65058,0.0266 -1.18059,0.0148 -1.17779,-0.026 0.003,-0.0409 0.0866,-0.17937 0.18615,-0.30775 0.13746,-0.17718 0.44965,-0.2309 1.29593,-0.22297 0.61909,0.006 1.13811,-0.0557 1.16716,-0.13819 0.0299,-0.0849 -0.14834,-0.1276 -0.41559,-0.0996 -0.25733,0.027 -0.73528,0.004 -1.06212,-0.0513 -0.48842,-0.0825 -0.56338,-0.13757 -0.42093,-0.3092 0.11597,-0.13975 0.48977,-0.20881 1.13007,-0.20881 0.6,0 0.92252,-0.0555 0.86491,-0.14866 -0.0505,-0.0817 -0.42795,-0.14865 -0.83872,-0.14865 -1.02485,0 -0.9017,-0.3554 0.14433,-0.41654 0.9136,-0.0534 1.03999,-0.32669 0.15109,-0.32669 -0.60821,0 -0.61353,-0.004 -0.34858,-0.29729 0.14797,-0.16351 0.42591,-0.29729 0.61763,-0.29729 0.36782,0 0.47823,-0.22807 0.16277,-0.33623 -0.1201,-0.0411 -0.0281,-0.21944 0.26012,-0.50407 0.24527,-0.24221 0.61994,-0.67131 0.8326,-0.95355 0.21267,-0.28225 0.7478,-0.70921 1.18918,-0.94879 0.44138,-0.23959 0.8909,-0.5232 0.99894,-0.63025 0.10807,-0.10708 0.50938,-0.20105 0.89188,-0.2089 0.38249,-0.008 1.02991,-0.0989 1.43869,-0.20243 l 0.74322,-0.18816 -1.11484,0.0727 c -0.88634,0.0578 -1.07922,0.0347 -0.941,-0.11263 0.29585,-0.31537 1.35957,-0.43347 4.06258,-0.45105 1.43072,-0.009 2.7351,-0.0744 2.89861,-0.14467 0.18008,-0.0774 -0.90418,-0.13422 -2.74997,-0.14415 -2.8637,-0.0154 -3.02118,-0.0305 -2.61434,-0.25081 0.34497,-0.18679 1.10004,-0.24757 3.71617,-0.2991 1.95033,-0.0384 3.3436,-0.12635 3.4319,-0.21657 0.10113,-0.10333 -0.56474,-0.144 -2.08106,-0.12726 -1.22633,0.0136 -2.5307,0.0119 -2.8986,-0.003 l -0.66891,-0.0283 0.60535,-0.1912 c 0.33295,-0.1051 1.78783,-0.24045 3.23307,-0.30067 1.63505,-0.0682 2.62771,-0.16738 2.62771,-0.26276 0,-0.1019 -0.73526,-0.12717 -2.19255,-0.0754 -2.14627,0.0763 -2.17215,0.0736 -1.22633,-0.12929 2.43478,-0.52215 5.71305,-0.60533 7.72962,-0.19612 z m -3.91413,1.03388 c -0.31693,0.53651 -1.29194,1.22862 -2.27882,1.61761 -0.79899,0.31493 -1.71547,0.46911 -5.43855,0.91493 -1.49385,0.17889 -2.83167,0.42505 -3.34455,0.61543 -1.0906,0.40481 -2.02531,1.30816 -2.26162,2.18577 -0.12934,0.48034 -0.14982,4.01146 -0.0806,13.89591 0.0511,7.28857 0.12364,13.40257 0.16127,13.5867 l 0.0685,0.33475 10.81114,-1.5e-4 c 5.94611,-1.1e-4 12.13939,-0.0443 13.7628,-0.0983 l 2.95167,-0.098 -0.0944,-13.31739 c -0.0605,-8.54763 -0.15119,-13.5692 -0.25297,-14.02045 -0.38063,-1.68747 -2.65006,-2.64544 -7.48838,-3.161 -3.77842,-0.40262 -5.02797,-0.88985 -5.74412,-2.23983 -0.19244,-0.36274 -0.38575,-0.65953 -0.42958,-0.65953 -0.0438,0 -0.19762,0.19964 -0.34176,0.44365 z m 2.06654,1.98306 c 0.73112,0.36677 2.70932,0.81016 4.0773,0.91387 4.54722,0.34468 7.12209,1.40075 7.43941,3.05123 0.0708,0.36789 0.13153,6.50171 0.1351,13.63069 l 0.007,12.96178 -2.19254,0.0448 c -3.62011,0.074 -24.09024,0.0479 -24.16723,-0.0309 -0.0989,-0.10112 -0.23819,-9.35883 -0.28402,-18.87679 -0.0376,-7.80185 -0.0324,-7.96536 0.27324,-8.62574 0.25549,-0.55205 0.47356,-0.75951 1.21216,-1.15318 1.16145,-0.61904 2.2585,-0.82407 6.51945,-1.21837 0.90822,-0.084 2.03997,-0.28653 2.515,-0.44996 1.02268,-0.35186 2.14611,-1.04567 2.42427,-1.49718 0.19663,-0.31916 0.20639,-0.31534 0.89188,0.34901 0.3812,0.36944 0.89847,0.77475 1.14951,0.90069 z m -2.21325,-0.70791 -0.41902,0.36559 0.45617,0.0912 c 0.42732,0.0855 0.45712,0.13473 0.47099,0.77872 0.02,0.92377 0.17282,1.41986 0.45434,1.47407 0.18874,0.0364 0.24757,-0.15692 0.30898,-1.01501 0.0734,-1.02699 0.0614,-1.07544 -0.38832,-1.56004 l -0.46414,-0.50013 -0.419,0.36557 z m -1.58773,1.00036 c -0.33915,0.15818 -0.29695,0.17749 0.48311,0.22096 l 0.85471,0.0476 0,0.65451 c 0,0.79674 0.24391,1.37473 0.63211,1.49795 0.48372,0.15352 0.65516,-0.18213 0.25749,-0.50413 -0.27765,-0.22484 -0.3604,-0.46413 -0.41328,-1.19512 l -0.0661,-0.91399 -0.6882,0.01 c -0.37851,0.006 -0.85544,0.0874 -1.05983,0.18274 z m 3.27023,0.10509 c 0,0.0817 0.18394,0.14762 0.40878,0.14637 0.31854,-0.002 0.35955,-0.0341 0.18581,-0.14637 -0.29084,-0.18795 -0.59459,-0.18795 -0.59459,0 z m -6.31748,0.55445 c -1.18438,0.0713 -4.53373,0.52398 -4.53373,0.61275 0,0.0501 1.35454,1.40639 3.01009,3.01409 l 3.0101,2.92309 0.0397,-0.83939 c 0.0599,-1.26848 0.23489,-1.5083 1.1003,-1.5083 0.39496,0 0.71811,-0.0275 0.71811,-0.0611 0,-0.0336 -0.14307,-0.43495 -0.31792,-0.89188 -0.31009,-0.81029 -0.3321,-0.83079 -0.89188,-0.83079 l -0.57396,0 0,-1.25896 0,-1.25898 -0.4831,0.0319 c -0.26571,0.0175 -0.75067,0.048 -1.07769,0.0676 z m 8.69582,0.99396 c 0,0.78417 0.0458,0.97858 0.23006,0.97858 0.18759,0 0.2219,-0.16938 0.18581,-0.91724 -0.0273,-0.56794 -0.11501,-0.94061 -0.23006,-0.97859 -0.13604,-0.0449 -0.18581,0.20075 -0.18581,0.91725 z m 0.8441,-0.85649 c -0.0555,0.0555 -0.10091,0.5914 -0.10091,1.19094 l 0,1.09007 -0.57439,0 c -0.53951,0 -0.58915,0.0387 -0.81756,0.63672 -0.40479,1.05995 -0.36117,1.14704 0.5744,1.14704 l 0.81755,0 0,1.00182 0,1.00182 2.67894,-2.6741 2.67894,-2.67409 -0.63504,-0.18926 c -0.34928,-0.1041 -1.30396,-0.25459 -2.12152,-0.33444 -0.81756,-0.0798 -1.69192,-0.17943 -1.94303,-0.22128 -0.25112,-0.0418 -0.50196,-0.0307 -0.55743,0.0248 z m -1.98717,2.46323 c -0.31927,0.41727 -0.53601,1.17108 -0.38123,1.32587 0.10587,0.10587 0.23295,-0.0848 0.40822,-0.61249 0.25522,-0.7684 0.24391,-1.06744 -0.027,-0.71338 z m -5.4717,2.04748 c -0.0602,0.0975 1.08853,0.14864 3.33577,0.14864 l 3.42766,0 0,1.04931 c 0,0.66168 0.0549,1.01536 0.14864,0.95743 0.0817,-0.0505 0.14865,-0.58961 0.14865,-1.19795 l 0,-1.10608 -3.48443,0 c -2.1626,0 -3.51928,0.0564 -3.57629,0.14865 z m 0.37162,1.47635 c 0,0.20281 0.89098,0.80384 1.01192,0.6826 0.0566,-0.0568 -0.0847,-0.26472 -0.31414,-0.46216 -0.4345,-0.37397 -0.69778,-0.45716 -0.69778,-0.22044 z m 1.24585,0.37181 c 0.2141,0.2807 0.38926,0.54827 0.38926,0.59459 0,0.0463 -0.45113,0.0843 -1.0025,0.0843 l -1.0025,0 1.59708,1.59709 1.59709,1.59708 1.59709,-1.59708 1.59709,-1.59709 -0.63089,0 c -0.70974,0 -0.75917,-0.0941 -0.33359,-0.63515 0.16351,-0.20787 0.29729,-0.41756 0.29729,-0.46599 0,-0.0484 -0.30101,-0.088 -0.66891,-0.088 -0.3679,0 -0.66891,0.0367 -0.66891,0.0817 0,0.045 0.0977,0.27057 0.21704,0.50141 0.11938,0.23084 0.17513,0.46164 0.12388,0.51288 -0.12216,0.12215 -2.42197,0.12142 -2.42197,-7.6e-4 0,-0.0517 0.13924,-0.31924 0.30942,-0.5946 l 0.30941,-0.50064 -0.84731,0 -0.84733,0 0.38926,0.51034 z m 2.02437,-0.37815 c 0,0.22161 0.5623,0.84069 0.66799,0.73542 0.11755,-0.11705 -0.34652,-0.8676 -0.53644,-0.8676 -0.0723,0 -0.13155,0.0594 -0.13155,0.13218 z m -13.55665,9.8643 c 0.0245,3.86295 0.0579,7.07031 0.0743,7.12746 0.048,0.16727 7.09054,-6.81544 7.09054,-7.03028 0,-0.17516 -6.95551,-7.11513 -7.13504,-7.1191 -0.0409,-8.9e-4 -0.0543,3.15896 -0.0298,7.02192 z m 22.40964,-3.36938 -3.40037,3.50552 3.4729,3.47526 c 1.9101,1.9114 3.50016,3.44803 3.53345,3.41474 0.0495,-0.0495 0.0621,-5.02163 0.0322,-12.67471 -0.002,-0.67449 -0.0572,-1.22634 -0.12128,-1.22634 -0.0641,0 -1.64665,1.57749 -3.51685,3.50553 z m -9.64666,-1.35281 c -0.12117,0.12118 -0.24692,0.30016 -0.27946,0.39776 -0.0412,0.12366 -0.67943,0.18813 -2.10622,0.21275 -1.12591,0.0194 -2.08703,0.0752 -2.13584,0.12406 -0.17121,0.17122 0.7642,0.97476 1.23825,1.06369 0.75323,0.14131 2.14504,-0.20576 2.87074,-0.71587 0.52524,-0.36919 0.69852,-0.42499 0.89188,-0.2872 0.81548,0.58111 1.79967,0.96298 2.6598,1.03203 0.8774,0.0705 0.96795,0.0478 1.37788,-0.34498 0.24131,-0.23119 0.43875,-0.47473 0.43875,-0.54119 0,-0.0665 -0.45151,-0.12131 -1.00337,-0.12189 -1.68602,-0.002 -3.0101,-0.16956 -3.0101,-0.38144 0,-0.21518 -0.40014,-0.65803 -0.59458,-0.65803 -0.07,0 -0.22655,0.0991 -0.34773,0.22031 z m -4.85491,5.17384 c 0,3.90168 0.0135,4.09619 0.30809,4.4708 0.16944,0.21542 0.36876,0.39167 0.44294,0.39167 0.079,0 0.10928,-1.66697 0.0731,-4.01779 l -0.0617,-4.01779 -0.3812,-0.45302 -0.38119,-0.45301 0,4.07914 z m 3.97259,-3.48985 c -0.56118,0.29205 -0.94584,0.37256 -1.83723,0.38455 l -1.12745,0.0152 0.0969,4.07491 c 0.0533,2.24121 0.1369,4.13967 0.1858,4.21882 0.1345,0.2176 1.89455,0.008 2.61529,-0.31175 1.1072,-0.49089 1.07899,-0.36465 1.03069,-4.61155 -0.0237,-2.08432 -0.0907,-3.86839 -0.14865,-3.9646 -0.076,-0.12598 -0.30426,-0.0716 -0.81533,0.19444 z m 0.41244,1.56288 c -0.5781,0.34241 -1.93909,0.82836 -2.34113,0.8359 -0.4909,0.009 -0.54674,-0.25565 -0.0743,-0.35259 1.25369,-0.25729 1.86859,-0.42627 2.19231,-0.60246 0.44325,-0.24123 0.64747,-0.13219 0.22314,0.11915 z m 0.23909,2.08772 c -0.2462,0.29664 -1.95026,1.10073 -2.45577,1.15879 -0.72474,0.0833 -0.62585,-0.28978 0.10587,-0.39952 0.36133,-0.0541 1.01752,-0.28663 1.45821,-0.51656 0.90961,-0.47457 1.13498,-0.53592 0.89164,-0.24271 z m 0.13258,2.1511 c 0,0.30672 -2.86836,1.51557 -3.08414,1.29979 -0.16387,-0.16388 0.16588,-0.33215 1.16229,-0.59307 0.53722,-0.14067 1.17268,-0.38491 1.41214,-0.54278 0.49881,-0.3288 0.50971,-0.33231 0.50971,-0.16394 z m 0.65346,-5.52054 c -0.11789,0.62845 0.0204,6.98272 0.15972,7.34067 0.0505,0.12965 0.32719,0.34798 0.61492,0.4852 0.63454,0.30258 2.44133,0.62966 2.77373,0.50211 0.21237,-0.0815 0.24154,-0.55628 0.25274,-4.11496 l 0.0127,-4.02283 -0.63566,0.0227 c -0.80324,0.0287 -1.52405,-0.12795 -2.2277,-0.48411 -0.7546,-0.38196 -0.83202,-0.35987 -0.95041,0.2712 z m 2.08845,1.83126 c 0.82163,0.22839 1.29378,0.59133 0.76925,0.59133 -0.43224,0 -1.80124,-0.59198 -2.24766,-0.97193 l -0.44594,-0.37955 0.52026,0.25723 c 0.28615,0.14149 0.91799,0.36781 1.40409,0.50292 z m -1.32568,1.68474 c 0.16126,0.11084 0.66111,0.3194 1.11077,0.46346 0.44965,0.14405 0.91789,0.36288 1.04052,0.4863 0.19859,0.19986 0.17241,0.21505 -0.2395,0.13897 -0.58616,-0.10829 -2.07146,-0.80699 -2.29951,-1.08177 -0.22042,-0.26561 0.006,-0.26966 0.38772,-0.007 z m 0.12913,2.25097 c 0.15502,0.11735 0.70686,0.35479 1.22633,0.52765 0.51946,0.17288 0.94448,0.37575 0.94448,0.45083 0,0.0751 -0.0644,0.13654 -0.14307,0.13654 -0.34707,0 -1.75497,-0.6253 -2.16096,-0.95976 -0.46898,-0.38636 -0.35209,-0.52261 0.13322,-0.15526 z m 3.90502,-6.21822 c -0.0545,0.0545 -0.11255,0.94081 -0.12899,1.96957 l -0.0299,1.87046 -0.0889,-1.78375 -0.0889,-1.78376 -0.0487,1.26349 -0.0488,1.2635 -0.12273,-0.94675 c -0.19981,-1.54148 -0.33422,-1.25935 -0.23188,0.48678 0.0523,0.89159 0.1051,2.59731 0.11735,3.79048 0.014,1.36589 0.0588,1.92167 0.12068,1.50051 l 0.0984,-0.66891 0.0773,0.59458 c 0.0529,0.40678 0.0889,0.19549 0.11403,-0.66891 0.0404,-1.39015 0.0982,-1.40397 0.29615,-0.0709 0.0951,0.63986 0.12942,-0.20343 0.12278,-3.01348 -0.006,-2.14609 -0.0204,-3.90197 -0.0341,-3.90197 -0.0137,0 -0.0694,0.0445 -0.1239,0.0991 z m -0.43731,5.13804 c -0.0331,0.26716 -0.0609,0.0844 -0.0616,-0.40612 -8.9e-4,-0.49054 0.0263,-0.70913 0.0601,-0.48576 0.034,0.22336 0.0346,0.62471 10e-4,0.89188 z m 0.37527,-0.40257 c 0.0395,0.20634 0.0138,0.41096 -0.057,0.45471 -0.0708,0.0438 -0.1287,-0.12507 -0.1287,-0.37517 0,-0.55183 0.0882,-0.58962 0.18569,-0.0795 z m -8.92858,8.17796 c -1.97714,2.00627 -3.5948,3.68068 -3.5948,3.72089 0,0.0403 0.72733,0.0641 1.61626,0.0532 l 1.61627,-0.02 1.30341,-1.30947 1.30341,-1.30948 -0.31836,-0.40472 c -0.602,-0.76531 -0.27355,-1.90391 0.70839,-2.4558 0.33607,-0.18887 0.702,-0.48224 0.81317,-0.65192 0.26074,-0.39795 0.45319,-1.27036 0.28023,-1.27036 -0.0732,0 -1.75085,1.6415 -3.72798,3.64778 z m 4.35383,-3.09037 c 0.1073,0.57837 0.44852,1.07769 0.73637,1.07769 0.0913,0 0.41309,0.20363 0.71502,0.4525 0.7707,0.63527 1.01229,1.7038 0.5261,2.32685 -0.18852,0.24159 -0.0637,0.43136 1.19659,1.82044 l 1.08649,1.19743 1.6057,0 1.60569,0 -3.65967,-3.71801 c -2.01282,-2.04491 -3.71728,-3.71719 -3.78771,-3.71617 -0.0705,0.001 -0.0815,0.2527 -0.0246,0.55927 z m -1.07372,1.33341 c -0.10223,0.0365 -0.18581,0.17545 -0.18581,0.30879 0,0.22066 0.0226,0.21986 0.25128,-0.009 0.26873,-0.26873 0.23824,-0.40842 -0.0655,-0.29995 z m 1.07769,0.0416 c 0.0505,0.0817 0.19221,0.14865 0.31484,0.14865 0.12263,0 0.18163,-0.0669 0.1311,-0.14865 -0.0505,-0.0817 -0.19221,-0.14865 -0.31484,-0.14865 -0.12263,0 -0.18163,0.0669 -0.1311,0.14865 z m -0.61516,0.37162 c -0.0471,0.12263 -0.0423,0.33556 0.01,0.47317 0.0868,0.22606 0.12589,0.22034 0.40555,-0.0593 0.3219,-0.32189 0.26672,-0.63681 -0.11159,-0.63681 -0.12037,0 -0.25736,0.10035 -0.30442,0.22297 z m -1.32081,0.23417 c -0.0538,0.16967 -0.0568,0.34964 -0.007,0.39992 0.14413,0.14415 0.57701,-0.36392 0.46478,-0.5455 -0.15704,-0.2541 -0.35101,-0.19248 -0.45831,0.14558 z m 2.90217,-0.15985 c 0,0.0817 0.0669,0.14864 0.14864,0.14864 0.0817,0 0.14866,-0.0669 0.14866,-0.14864 0,-0.0817 -0.0669,-0.14865 -0.14866,-0.14865 -0.0817,0 -0.14864,0.0669 -0.14864,0.14865 z m -2.36736,0.57405 c -0.10377,0.19381 -0.0926,0.3527 0.0372,0.53011 0.17255,0.23598 0.20414,0.23248 0.4607,-0.0509 0.22569,-0.2494 0.2416,-0.34512 0.0881,-0.53011 -0.2478,-0.29859 -0.4062,-0.2848 -0.58591,0.0509 z m 1.77278,-0.15266 c 0,0.27588 0.17937,0.61913 0.32354,0.61913 0.20668,0 0.0832,-0.63408 -0.13773,-0.70681 -0.10223,-0.0336 -0.18581,0.006 -0.18581,0.0877 z m 1.26349,0.32184 c 0.0505,0.0817 0.12137,0.14865 0.15742,0.14865 0.0361,0 0.0655,-0.0669 0.0655,-0.14865 0,-0.0817 -0.0708,-0.14864 -0.15743,-0.14864 -0.0866,0 -0.11607,0.0669 -0.0655,0.14864 z m -4.08778,0.30607 c 0,0.0866 0.0668,0.11608 0.14865,0.0655 0.0817,-0.0505 0.14864,-0.12138 0.14864,-0.15743 0,-0.0361 -0.0669,-0.0655 -0.14864,-0.0655 -0.0817,0 -0.14865,0.0708 -0.14865,0.15742 z m 1.83751,0.2142 c -0.11775,0.30687 0.0419,0.6689 0.295,0.6689 0.11519,0 0.2927,-0.10035 0.39448,-0.22297 0.14764,-0.17788 0.14764,-0.26804 0,-0.44593 -0.10179,-0.12263 -0.27929,-0.22298 -0.39448,-0.22298 -0.11519,0 -0.24794,0.10036 -0.295,0.22298 z m 1.87866,0.22297 c 0,0.46984 0.20608,0.60074 0.35104,0.22296 0.10157,-0.26462 -0.0304,-0.66891 -0.2183,-0.66891 -0.073,0 -0.13274,0.20068 -0.13274,0.44595 z m -3.27023,0.0425 c 0,0.41051 0.19801,0.53572 0.38043,0.24056 0.0554,-0.0897 -0.008,-0.27117 -0.13987,-0.40348 -0.22165,-0.22165 -0.24056,-0.20883 -0.24056,0.16292 z m 2.22672,0.48139 c -0.10345,0.1246 -0.15079,0.2638 -0.10521,0.30933 0.13263,0.13263 0.7201,-0.23904 0.62389,-0.39471 -0.12572,-0.2034 -0.30323,-0.17418 -0.51864,0.0854 z m -1.74454,0.10785 c 0.0335,0.10223 0.25272,0.20822 0.48701,0.23561 0.37412,0.0438 0.40219,0.0211 0.23048,-0.18581 -0.23229,-0.27989 -0.80612,-0.31972 -0.71749,-0.0498 z m -1.46191,1.63417 c -0.84108,0.89157 -0.96642,1.08622 -0.7289,1.13197 0.17824,0.0343 0.37306,-0.0764 0.51463,-0.2927 0.12528,-0.19136 0.51208,-0.66953 0.85954,-1.06261 0.34747,-0.39308 0.63175,-0.74589 0.63175,-0.78404 0,-0.24136 -0.38711,0.0641 -1.27702,1.00738 z m 0.7196,0.0247 c -0.34747,0.43453 -0.63175,0.85835 -0.63175,0.94184 0,0.1862 0.50726,0.3335 0.70728,0.20538 0.17177,-0.11006 0.92783,-1.57497 0.92783,-1.79777 0,-0.35564 -0.41281,-0.088 -1.00336,0.65055 z m 1.18903,-0.13523 c -0.26252,0.40879 -0.47858,0.85539 -0.48013,0.99247 -0.004,0.40116 0.93952,0.46301 1.07717,0.0706 0.033,-0.0942 0.0196,-0.53907 -0.0299,-0.98872 l -0.0899,-0.81755 -0.47731,0.74322 z m 2.73352,-0.44593 c 0.0471,0.12263 0.14319,0.22297 0.21363,0.22297 0.0705,0 0.0895,-0.10035 0.0426,-0.22297 -0.0471,-0.12263 -0.1432,-0.22297 -0.21365,-0.22297 -0.0705,0 -0.0895,0.10035 -0.0425,0.22297 z m -1.60054,0.0283 c -0.18059,1.13305 0.0183,1.68105 0.61008,1.68105 0.24729,0 0.44961,-0.0356 0.44961,-0.0793 0,-0.0436 -0.16594,-0.40677 -0.36878,-0.80704 -0.35669,-0.70389 -0.65136,-1.04286 -0.69091,-0.79475 z m 0.7624,-0.0358 c 0,0.13079 0.88778,1.37979 1.11446,1.56792 0.64566,0.53585 0.23621,-0.39806 -0.5701,-1.30033 -0.27111,-0.30337 -0.54436,-0.43769 -0.54436,-0.26759 z m 1.33782,0.70539 c 0,0.24864 0.75601,1.0115 1.00241,1.0115 0.1241,0 0.0117,-0.23105 -0.28793,-0.5919 -0.50487,-0.60801 -0.71448,-0.73111 -0.71448,-0.4196 z m 9.2875,3.3207 c 0.73469,0.0786 0.94821,0.14952 0.82427,0.27348 -0.12081,0.12081 -3.54838,0.17437 -12.33642,0.19277 -11.23788,0.0235 -12.18645,0.007 -12.39562,-0.22479 -0.2121,-0.23435 0.50929,-0.25336 11.34487,-0.29896 6.36425,-0.0268 12.01756,-9.1e-4 12.5629,0.0575 z m -0.13572,0.84717 c 0.35425,0.35425 -1.07059,0.40615 -11.36594,0.41403 -8.60122,0.007 -10.93522,-0.0315 -11.20052,-0.1831 -0.28449,-0.16247 0.11414,-0.20262 2.63781,-0.26571 4.10878,-0.10267 19.81857,-0.0753 19.92865,0.0347 z m -1.12485,0.8314 c 0,0.40869 -0.97173,0.45119 -10.26191,0.44885 -9.22386,-0.002 -10.25134,-0.0466 -10.25134,-0.4421 0,-0.0659 4.61548,-0.12289 10.25662,-0.12661 5.64115,-0.003 10.25663,0.0502 10.25663,0.11986 z m -2.2297,0.77087 0.9662,0.01 -0.52027,0.23258 c -0.45147,0.20182 -1.57863,0.23215 -8.52425,0.22929 -6.32532,-0.002 -8.10231,-0.0448 -8.47286,-0.20123 -0.41757,-0.17629 -0.13546,-0.20607 2.57839,-0.27227 2.49435,-0.0609 7.7843,-0.0601 13.97279,0.002 z m -1.76991,1.07562 c -0.60739,0.23131 -1.31676,0.26003 -6.42575,0.26014 -4.64755,1e-4 -5.8384,-0.0405 -6.24317,-0.21242 l -0.50017,-0.21254 0.89188,-0.0617 c 0.49054,-0.0338 3.6072,-0.0553 6.92593,-0.0476 5.9144,0.0138 6.0205,0.0192 5.35128,0.27401 z m -3.3584,0.78809 c -1.30972,0.24821 -4.09679,0.28709 -5.63561,0.0786 -0.64691,-0.0877 -1.20991,-0.19306 -1.25111,-0.23426 -0.0412,-0.0412 1.72558,-0.0674 3.92617,-0.0582 3.77384,0.0158 3.94198,0.0279 2.96055,0.21388 z m 14.79034,-39.82414 c 0,0.44649 -2.30129,2.64111 -2.63796,2.51567 -0.14336,-0.0534 0.1073,0.26997 0.55691,0.71863 1.02266,1.0204 1.47255,1.15747 2.01585,0.61415 0.30714,-0.30712 0.37676,-0.49044 0.31106,-0.81896 l -0.0847,-0.42327 1.27149,-0.10587 1.27147,-0.10587 -0.30373,-0.30373 c -0.28666,-0.28666 -0.36198,-0.29332 -1.3405,-0.11845 -1.01986,0.18226 -1.65452,0.0774 -1.65452,-0.27335 0,-0.24016 1.07228,-1.07031 1.2797,-0.99072 0.34087,0.1308 0.23505,-0.12589 -0.23918,-0.58023 -0.4046,-0.38763 -0.44593,-0.3995 -0.44593,-0.12792 z m -0.14864,2.81867 c 0,0.1842 -0.17189,0.47013 -0.38199,0.63538 -0.30938,0.24337 -0.45676,0.27203 -0.77552,0.15084 -0.8205,-0.31195 -0.83709,-0.42945 -0.1582,-1.12118 l 0.63114,-0.64307 0.34228,0.32155 c 0.18826,0.17687 0.34229,0.47228 0.34229,0.65648 z m 2.8986,2.3048 c -1.43918,0.83526 -1.78401,2.42521 -0.73891,3.40703 0.20201,0.18978 0.36729,0.43374 0.36729,0.54212 0,0.28163 0.35597,0.24324 0.75721,-0.0816 l 0.34419,-0.27872 -0.41426,0 c -0.79026,0 -1.43144,-0.60306 -1.42981,-1.3448 10e-4,-0.51982 0.60171,-1.23946 1.28757,-1.54285 0.85997,-0.38041 1.62373,-0.28831 2.09358,0.25245 0.46841,0.53909 0.41991,0.8701 -0.17441,1.19015 -0.44633,0.24037 -0.54143,0.24781 -0.7739,0.0605 -0.20447,-0.16468 -0.18464,-0.0775 0.0867,0.38111 0.48958,0.82756 0.60147,0.93058 0.60147,0.55381 0,-0.19984 0.15604,-0.4077 0.40877,-0.54456 0.83811,-0.45382 0.83192,-0.44086 0.50945,-1.06678 -0.48799,-0.94716 -1.23915,-1.56793 -1.98318,-1.63893 -0.35446,-0.0339 -0.77826,0.0161 -0.94177,0.11104 z m -42.03046,1.34361 c 0.12801,0.12801 0.0976,0.31296 -0.12253,0.74441 l -0.29288,0.57407 -0.58113,-0.29648 c -0.31964,-0.16306 -0.67444,-0.42966 -0.78844,-0.59243 -0.19906,-0.2842 -0.22003,-0.2733 -0.52776,0.27424 l -0.32047,0.57021 0.34735,-0.0664 c 0.5105,-0.0976 3.03419,1.36396 3.09523,1.79254 0.0346,0.24287 0.21799,0.0192 0.74131,-0.90413 0.67162,-1.18499 0.68508,-1.23234 0.39471,-1.38774 -0.26252,-0.14049 -0.28882,-0.12369 -0.20748,0.13259 0.0826,0.26025 -0.41181,1.36714 -0.61066,1.36714 -0.0387,0 -0.36838,-0.17467 -0.73267,-0.38815 l -0.66235,-0.38816 0.29522,-0.46657 c 0.16237,-0.25661 0.44852,-0.50453 0.63587,-0.55095 0.32775,-0.0812 0.32263,-0.0939 -0.13506,-0.33445 -0.5518,-0.29006 -0.77177,-0.32325 -0.52826,-0.0797 z m 46.48638,4.22449 c -0.22701,0.3504 -3.05754,1.15719 -3.37823,0.96289 -0.3068,-0.18588 -0.31318,-0.14367 -0.0908,0.59888 0.16186,0.54025 0.1801,0.55306 0.40877,0.28723 0.19753,-0.22962 1.33811,-0.66784 1.4421,-0.55406 0.0166,0.0182 0.16374,0.46792 0.32685,0.99934 l 0.29659,0.96619 -0.46716,0.17451 c -0.61385,0.2293 -1.2847,0.24167 -1.2847,0.0237 0,-0.0954 -0.0365,-0.13697 -0.0811,-0.0924 -0.0446,0.0446 -1.5e-4,0.40193 0.0986,0.79413 0.14496,0.57572 0.20089,0.65546 0.29025,0.41389 0.0834,-0.22539 0.46697,-0.40033 1.55444,-0.70894 0.79407,-0.22534 1.60294,-0.37928 1.79751,-0.34209 0.40717,0.0778 0.40652,0.0803 0.18561,-0.70871 -0.14563,-0.52015 -0.18118,-0.55532 -0.28398,-0.28093 -0.14238,0.38003 -1.45674,0.78252 -1.63158,0.49965 -0.15131,-0.24483 -0.50303,-1.76934 -0.42596,-1.8464 0.0358,-0.0359 0.38469,-0.15067 0.77518,-0.25511 0.6064,-0.16219 0.73179,-0.15798 0.85961,0.0289 0.10653,0.15567 0.12069,0.0687 0.0493,-0.30148 -0.14588,-0.75591 -0.26422,-0.93264 -0.44138,-0.65916 z m -49.82724,0.35141 c -2.04393,0.94434 -1.40634,4.01957 0.8341,4.02294 0.8147,0.001 1.54051,-0.42866 1.8598,-1.10151 0.89328,-1.88245 -0.85025,-3.77324 -2.6939,-2.92143 z m 1.76243,0.68914 c 0.68403,0.35373 1.06008,0.95767 0.96575,1.55097 -0.17577,1.10541 -1.49812,1.53998 -2.74712,0.90279 -0.7107,-0.36258 -0.90726,-0.6025 -1.00945,-1.23216 -0.0651,-0.40126 -0.002,-0.59984 0.30957,-0.96979 0.21529,-0.25586 0.53966,-0.49587 0.72082,-0.53335 0.4617,-0.0955 1.28629,0.0364 1.76043,0.28154 z m -2.34312,7.57021 c -0.0515,0.13418 -0.0223,0.31523 0.0647,0.40235 0.22648,0.22648 0.65559,0.0195 0.59644,-0.28771 -0.066,-0.34216 -0.54222,-0.42475 -0.66122,-0.11464 z m 50.09628,-0.007 c -0.10355,0.26984 0.0469,0.52737 0.308,0.52737 0.27122,0 0.39308,-0.37215 0.18876,-0.57647 -0.22643,-0.22643 -0.39752,-0.20953 -0.49676,0.0491 z m 1.68563,4.58361 c -0.0431,0.11234 -0.49457,0.356 -1.00324,0.54147 -1.11894,0.40799 -2.38157,0.33633 -2.72547,-0.15467 -0.19153,-0.27345 -0.21583,-0.24907 -0.37264,0.37368 -0.21581,0.85707 -0.21122,0.94811 0.0311,0.61669 0.18129,-0.24793 0.27004,-0.2555 1.00337,-0.0857 0.63859,0.1479 0.9654,0.34268 1.58488,0.94457 0.42922,0.41703 0.78242,0.86087 0.78491,0.98629 0.008,0.40183 0.25354,-0.14534 0.36464,-0.81248 0.0725,-0.43474 0.0572,-0.53464 -0.0567,-0.37161 -0.13057,0.18701 -0.25474,0.12421 -0.77002,-0.38947 l -0.61435,-0.61243 0.70782,-0.2412 c 0.49828,-0.16977 0.76301,-0.19539 0.89418,-0.0866 0.1405,0.1166 0.2114,0.0406 0.28819,-0.30903 0.10499,-0.47823 0.0222,-0.76175 -0.11675,-0.39964 z m -52.99566,0.0845 c -0.14447,0.0916 -0.15465,0.21333 -0.0403,0.48083 0.20007,0.46785 0.60531,2.28884 0.60531,2.71996 0,0.28785 0.0633,0.32738 0.43626,0.27262 l 0.43627,-0.0641 -0.34721,-0.319 c -0.3417,-0.31396 -0.64,-1.13146 -0.41667,-1.14192 0.0629,-0.003 0.83375,-0.16321 1.71305,-0.35616 0.88763,-0.19476 1.63534,-0.29156 1.68104,-0.21761 0.21464,0.34729 0.30567,0.0669 0.17033,-0.52445 -0.14224,-0.62158 -0.16351,-0.64268 -0.38815,-0.38485 -0.20672,0.23726 -2.56467,0.89384 -3.21002,0.89384 -0.33799,0 -0.43952,-0.86841 -0.1402,-1.19916 0.24836,-0.27443 0.24732,-0.2872 -0.0232,-0.28503 -0.15573,10e-4 -0.3702,0.0575 -0.47658,0.12496 z m 4.98902,4.30291 c -0.11761,0.44974 -2.90608,1.74868 -3.27198,1.52417 -0.33643,-0.20643 -0.32802,-0.12675 0.0664,0.62922 0.23627,0.45291 0.34212,0.55317 0.38305,0.36289 0.0532,-0.24694 1.02422,-0.85191 1.36747,-0.85191 0.13857,0 0.89593,1.50442 0.89593,1.77968 0,0.19391 -1.16748,0.63901 -1.46916,0.56012 -0.28747,-0.0752 -0.28674,-0.0606 0.0298,0.59489 0.24448,0.50626 0.3356,0.59843 0.36954,0.37378 0.0539,-0.35701 2.75272,-1.7344 3.17957,-1.62278 0.32459,0.0849 0.32294,0.11583 0.0311,-0.58262 -0.20086,-0.48074 -0.25937,-0.5292 -0.37958,-0.3144 -0.12157,0.21723 -1.14861,0.84645 -1.3816,0.84645 -0.10245,0 -1.0095,-1.7981 -0.94138,-1.86621 0.0288,-0.0288 0.34898,-0.18516 0.71153,-0.34748 0.47631,-0.21324 0.71191,-0.25135 0.84926,-0.13737 0.27977,0.23219 0.23458,-0.14335 -0.0908,-0.75392 -0.24089,-0.45213 -0.27662,-0.47204 -0.34919,-0.19451 z m 42.35857,1.03563 c -0.31202,0.77321 -0.31787,0.86501 -0.0405,0.63477 0.17349,-0.14398 0.5148,-0.0437 1.74459,0.51245 0.84088,0.3803 1.55144,0.71401 1.57901,0.74158 0.0276,0.0276 -0.0569,0.25703 -0.18761,0.50989 -0.21491,0.4156 -0.38469,0.52922 -0.71321,0.47735 -0.26603,-0.042 -0.0787,0.24689 0.26013,0.40129 0.28756,0.13103 0.37161,0.12766 0.37161,-0.0149 0,-0.10135 0.32844,-0.85241 0.72985,-1.6691 0.40143,-0.81668 0.71915,-1.4933 0.70607,-1.50357 -0.0131,-0.01 -0.16873,-0.0632 -0.34591,-0.11761 -0.27093,-0.0832 -0.30949,-0.0505 -0.24252,0.20554 0.0647,0.24744 -0.19261,1.19426 -0.32454,1.19426 -0.0195,0 -0.7416,-0.33052 -1.6045,-0.73447 -1.02426,-0.47949 -1.58756,-0.82782 -1.62264,-1.00336 -0.0367,-0.18369 -0.1349,-0.0677 -0.30988,0.36585 z m -2.00274,3.5271 c -0.40694,0.62824 -0.40968,0.66099 -0.0472,0.56622 0.18618,-0.0487 0.64368,0.17448 1.30066,0.63447 1.42432,0.99726 1.67631,1.24262 1.56946,1.52819 -0.14548,0.38879 0.28297,-0.0144 0.61361,-0.57743 0.27125,-0.4619 0.27125,-0.47093 0,-0.38536 -0.37117,0.11708 -2.96208,-1.68219 -2.93275,-2.03667 0.032,-0.38575 -0.13758,-0.29471 -0.50374,0.27058 z m -37.42373,0.85106 c -0.0807,0.18179 -0.64841,0.75302 -1.26157,1.26938 -0.80054,0.67415 -1.20766,0.92231 -1.44404,0.88025 -0.32829,-0.0584 -0.32842,-0.0576 -0.0476,0.32857 0.15485,0.21294 0.58174,0.72161 0.94864,1.13039 0.63021,0.70212 0.68146,0.72926 0.92665,0.49066 0.24646,-0.23983 0.24443,-0.24861 -0.0404,-0.17415 -0.22303,0.0583 -0.42419,-0.0785 -0.78501,-0.53412 l -0.48514,-0.61255 0.57491,-0.50777 c 0.31619,-0.27928 0.61713,-0.51057 0.66874,-0.51396 0.22669,-0.015 0.86534,1.02833 0.77447,1.26514 -0.0899,0.23409 -0.0685,0.23364 0.29786,-0.007 0.35891,-0.23517 0.59354,-0.66216 0.24573,-0.4472 -0.14062,0.0869 -1.04028,-0.76665 -1.04028,-0.98699 0,-0.10652 1.10158,-1.01989 1.23008,-1.01989 0.21311,0 0.90682,1.14915 0.88113,1.45961 -0.0251,0.30445 0.004,0.33162 0.19298,0.17537 0.12254,-0.10168 0.2228,-0.24843 0.2228,-0.32606 0,-0.10101 -1.62561,-2.2008 -1.70383,-2.2008 -0.006,0 -0.0754,0.14875 -0.15617,0.33055 z m 34.9643,2.10797 c -0.77865,0.84938 -0.77275,0.82697 -0.33044,1.25493 0.35582,0.34427 0.38659,0.35311 0.24231,0.0697 -0.34736,-0.68249 -10e-4,-1.38475 0.68297,-1.38475 0.54251,0 0.66115,0.32997 0.55194,1.53514 -0.0965,1.06546 -0.0839,1.13245 0.28316,1.49951 0.52972,0.52971 0.91865,0.48217 1.58825,-0.19415 l 0.57261,-0.57836 -0.3631,-0.34113 -0.36311,-0.34112 0.0955,0.47759 c 0.16193,0.80961 -0.66217,1.40775 -1.14237,0.82914 -0.15557,-0.18744 -0.16133,-0.4314 -0.0286,-1.20667 0.10135,-0.59158 0.11513,-1.10674 0.0353,-1.31681 -0.27239,-0.71643 -1.29044,-0.88549 -1.82445,-0.30298 z m -2.61592,2.37344 c -0.0931,0.11216 -0.17516,0.53023 -0.18241,0.92905 -0.0202,1.10738 -0.12842,1.531 -0.43297,1.69399 -0.23618,0.1264 -0.33561,0.0507 -0.6596,-0.50212 -0.23328,-0.39807 -0.34283,-0.75169 -0.28199,-0.91024 0.0764,-0.19926 -0.0499,-0.16073 -0.54584,0.16643 -0.57531,0.37952 -0.60868,0.43104 -0.30756,0.4748 0.44821,0.0652 2.13407,2.63968 2.00274,3.05846 -0.0666,0.21232 0.14542,0.11925 0.84645,-0.37162 1.12216,-0.78571 1.37015,-1.2952 0.92317,-1.89662 -0.16079,-0.21635 -0.46969,-0.41454 -0.68643,-0.44041 -0.37732,-0.045 -0.39407,-0.0849 -0.39407,-0.93881 0,-0.49048 0.0693,-1.02116 0.15387,-1.1793 0.11839,-0.2212 0.10543,-0.28752 -0.0561,-0.28752 -0.1155,0 -0.28615,0.0917 -0.37924,0.20391 z m 0.69435,2.70313 c 0.43443,0.30429 0.43694,0.99556 0.006,1.39793 -0.17893,0.16669 -0.36288,0.30187 -0.40878,0.30041 -0.0459,-0.001 -0.30019,-0.33414 -0.56508,-0.73927 l -0.48162,-0.73658 0.40731,-0.221 c 0.52123,-0.28281 0.64124,-0.28298 1.04313,-0.001 z m -27.02061,-1.37725 c -0.20456,0.10322 -0.712,0.75381 -1.12873,1.44711 -0.52439,0.87235 -0.83282,1.24611 -1.00337,1.21586 -0.38411,-0.0682 -0.293,0.0611 0.28251,0.40061 0.64032,0.3778 0.64693,0.37831 0.62208,0.0485 -0.0334,-0.443 1.22406,-2.56564 1.62922,-2.75023 0.46678,-0.21268 1.07013,0.0895 1.35283,0.67759 0.17887,0.37203 0.14115,0.49961 -0.48999,1.65744 -0.4983,0.91416 -0.7726,1.26702 -1.01132,1.30097 -0.28882,0.0411 -0.26063,0.0861 0.23836,0.38106 0.66719,0.3943 0.71472,0.40345 0.60458,0.11643 -0.0814,-0.2121 1.33488,-2.8763 1.63707,-3.07956 0.0832,-0.0559 0.20453,-0.0687 0.26975,-0.0283 0.0652,0.0403 0.11858,0.0132 0.11858,-0.0603 0,-0.0734 -0.17789,-0.21461 -0.3953,-0.31367 -0.3065,-0.13966 -0.42,-0.14015 -0.50526,-0.002 -0.0723,0.11714 -0.19461,0.0142 -0.3578,-0.30139 -0.14378,-0.27803 -0.46016,-0.56801 -0.75347,-0.69055 -0.61098,-0.25529 -0.64119,-0.25582 -1.10974,-0.0193 z m 20.36458,1.83025 c -0.53141,0.20152 -1.06654,0.40424 -1.18917,0.45048 -0.17511,0.0661 -0.15597,0.10995 0.0891,0.20478 0.42738,0.16528 1.4875,3.05493 1.23317,3.36139 -0.24744,0.29815 -0.0115,0.26183 1.23333,-0.18978 1.27911,-0.46407 1.38389,-0.53991 1.23862,-0.89659 -0.1051,-0.25809 -0.11469,-0.25759 -0.2149,0.0111 -0.0796,0.21361 -1.49802,0.96513 -1.4984,0.79393 -3e-5,-0.0191 -0.13146,-0.38038 -0.29205,-0.80289 l -0.29198,-0.7682 0.64823,-0.22088 c 0.49134,-0.16741 0.69284,-0.17936 0.83254,-0.0493 0.14444,0.13441 0.1643,0.0911 0.0917,-0.20009 -0.0508,-0.2044 -0.0934,-0.42179 -0.0945,-0.48311 -0.003,-0.20838 -0.29932,-0.11265 -0.29932,0.0969 0,0.19596 -0.71157,0.53481 -1.12306,0.53481 -0.1379,0 -0.6607,-1.12863 -0.6607,-1.42634 0,-0.0195 0.30298,-0.15124 0.67329,-0.29267 0.53728,-0.20519 0.7484,-0.2229 1.04519,-0.0877 0.34538,0.15737 0.36059,0.14833 0.21335,-0.12679 -0.20083,-0.37524 -0.44047,-0.36192 -1.63454,0.0909 z m -15.3107,0.43033 c 0.14849,0.17893 0.13593,0.42064 -0.0637,1.22634 -0.50559,2.03983 -0.52831,2.09753 -0.86848,2.20568 -0.32145,0.10223 -0.32245,0.10863 -0.0339,0.22149 0.56634,0.22137 0.77359,0.13191 2.23994,-0.96684 0.8103,-0.60717 1.49865,-1.07857 1.52965,-1.04757 0.13348,0.13348 -0.49224,2.21872 -0.74016,2.46664 -0.26451,0.26452 -0.25829,0.2766 0.20702,0.40235 0.53451,0.14445 0.73579,0.0814 0.40109,-0.12569 -0.18817,-0.11641 -0.15546,-0.38477 0.23457,-1.92433 0.24927,-0.98397 0.40032,-1.78904 0.33565,-1.78904 -0.0646,0 -0.88735,0.56959 -1.8282,1.26576 -0.94086,0.69617 -1.71064,1.22888 -1.71064,1.1838 0,-0.44318 0.70288,-2.7065 0.9025,-2.90611 0.24649,-0.2465 0.24347,-0.26342 -0.0615,-0.34523 -0.58683,-0.15743 -0.7513,-0.11728 -0.54379,0.13275 z m 10.49521,0.92917 c -0.0433,0.14306 -0.25031,0.99261 -0.45988,1.88787 -0.20958,0.89526 -0.49634,1.75833 -0.63725,1.91794 -0.24936,0.28244 -0.2428,0.2876 0.24547,0.19318 0.27593,-0.0534 0.63989,-0.0971 0.80881,-0.0971 0.28765,0 0.29045,-0.0122 0.0441,-0.19229 -0.25058,-0.18323 -0.24783,-0.25685 0.0583,-1.56079 0.1767,-0.75268 0.34841,-1.3685 0.38157,-1.3685 0.1534,0 1.26297,2.43465 1.19284,2.61739 -0.0591,0.15398 0.062,0.20671 0.47336,0.20616 l 0.55277,-7.4e-4 -0.39643,-0.33371 c -0.21804,-0.18355 -0.77581,-1.0528 -1.23948,-1.93168 -0.46367,-0.87887 -0.86607,-1.59794 -0.89421,-1.59794 -0.0281,0 -0.0867,0.11705 -0.13,0.26012 z m -4.64989,0.149 c 0.24182,0.27409 0.25954,0.47793 0.16467,1.89419 -0.0752,1.12194 -0.16545,1.60974 -0.30814,1.66448 -0.44497,0.17076 -0.15887,0.34295 0.56982,0.34295 0.68347,0 0.74035,-0.0229 0.49776,-0.20028 -0.24643,-0.18018 -0.26564,-0.3619 -0.19161,-1.81227 0.0672,-1.3153 0.13121,-1.64778 0.3482,-1.80645 0.24131,-0.17646 0.22545,-0.19466 -0.17125,-0.1965 -0.24045,-10e-4 -0.60442,-0.0451 -0.80881,-0.0976 -0.36519,-0.094 -0.36693,-0.0903 -0.10068,0.21153 z"
           id="path3606"
           inkscape:connector-curvature="0" />
      </g>
    </g>
  </g>
</svg>
