<?xml version="1.0" encoding="UTF-8" standalone="no"?>
<!-- Created with Inkscape (http://www.inkscape.org/) -->

<svg
   xmlns:dc="http://purl.org/dc/elements/1.1/"
   xmlns:cc="http://creativecommons.org/ns#"
   xmlns:rdf="http://www.w3.org/1999/02/22-rdf-syntax-ns#"
   xmlns:svg="http://www.w3.org/2000/svg"
   xmlns="http://www.w3.org/2000/svg"
   xmlns:sodipodi="http://sodipodi.sourceforge.net/DTD/sodipodi-0.dtd"
   xmlns:inkscape="http://www.inkscape.org/namespaces/inkscape"
   width="128"
   height="128"
   id="svg2"
   version="1.1"
   inkscape:version="0.48.4 r9939"
   sodipodi:docname="New document 1">
  <defs
     id="defs4" />
  <sodipodi:namedview
     id="base"
     pagecolor="#ffffff"
     bordercolor="#666666"
     borderopacity="1.0"
     inkscape:pageopacity="0.0"
     inkscape:pageshadow="2"
     inkscape:zoom="4.61"
     inkscape:cx="71.480446"
     inkscape:cy="48.580746"
     inkscape:document-units="px"
     inkscape:current-layer="g2999"
     showgrid="false"
     inkscape:window-width="1855"
     inkscape:window-height="1056"
     inkscape:window-x="65"
     inkscape:window-y="24"
     inkscape:window-maximized="1" />
  <metadata
     id="metadata7">
    <rdf:RDF>
      <cc:Work
         rdf:about="">
        <dc:format>image/svg+xml</dc:format>
        <dc:type
           rdf:resource="http://purl.org/dc/dcmitype/StillImage" />
        <dc:title></dc:title>
      </cc:Work>
    </rdf:RDF>
  </metadata>
  <g
     inkscape:label="Layer 1"
     inkscape:groupmode="layer"
     id="layer1">
    <g
       id="g2999"
       transform="matrix(1.7356186,0,0,1.7356186,-23.958583,-56.353419)">
      <g
         id="text2985"
         style="font-size:40px;font-style:normal;font-variant:normal;font-weight:normal;font-stretch:normal;line-height:125%;letter-spacing:0px;word-spacing:0px;fill:#000000;fill-opacity:1;stroke:none;font-family:Fipps;-inkscape-font-specification:Fipps">
        <path
           id="path2997"
           d="m 26.039845,76.109131 0,-5 20.499925,0 -0.06249,5 -20.437434,0 m -5,-5 0,-25 5,0 0,25 -5,0 m 5,-25 0,-5 20,0 0,5 -20,0 m 29.718792,25.312453 -5.093736,0.09374 -0.03124,-5.406189 -9.593811,0 0,-10 15,0 0,-15 -5,0 0,-5 -25,0 0,5 -5,0 0,5 -5,0 0,30 5,0 0,5 5,0 0,5 24.977369,0 0.312453,-0.437434 4.303989,-0.187472"
           inkscape:connector-curvature="0"
           sodipodi:nodetypes="ccccccccccccccccccccccccccccccccccccc" />
      </g>
      <g
         id="text2989"
         style="font-size:40px;font-style:normal;font-variant:normal;font-weight:normal;font-stretch:normal;line-height:125%;letter-spacing:0px;word-spacing:0px;fill:#d3371e;fill-opacity:1;stroke:none;font-family:Fipps;-inkscape-font-specification:Fipps"
         transform="translate(-9.8330899,15.056857)">
        <path
           id="path2994"
           d="m 60.904625,76.039856 0,-5 20,0 0,5 -20,0 m 0,-20 0,-10 5,0 0,10 -5,0 m 5,5 0,-5 15,0 0,5 -15,0 m 15,10 0,-10 5,0 0,10 -5,0 m -15,-25 0,-5 20,0 0,5 -20,0 m 30,15 -5,0 0,-5 5,0 0,-15 -5,0 0,-5 -25.187472,0 0,4.718792 -4.812528,0.06249 0,5.218717 -5,0 0,15.124981 5,0 0,9.625057 -5,0.03124 0,10.218717 5,0 0,5 30,0 0,-5 5,0 0,-20"
           inkscape:connector-curvature="0"
           sodipodi:nodetypes="cccccccccccccccccccccccccccccccccccccccccccccccc" />
      </g>
    </g>
  </g>
</svg>
